<svg width="394" height="506" viewBox="0 0 394 506" fill="none" xmlns="http://www.w3.org/2000/svg">
<path d="M221.721 355.246C240.508 354.782 283.856 348.729 301.154 342.962C311.591 339.482 320.359 343.379 319.246 356.182C318.132 368.985 278.192 391.912 245.489 397.236C225.542 400.483 178.411 405.029 149.465 397.236C120.519 389.442 87.3053 420.894 74.3166 437.593C65.9668 448.031 45.9271 475.724 32.5674 503" stroke="black" stroke-width="5" stroke-linecap="round"/>
<path d="M224.614 345.747C245.257 342.731 292.194 332.813 304.633 326.959C316.462 321.393 324.116 326.959 326.204 335.309C326.668 337.629 326.204 343.102 320.637 346.442" stroke="black" stroke-width="5" stroke-linecap="round"/>
<path d="M205.131 326.957C221.831 319.535 258.013 307.753 269.147 319.999" stroke="black" stroke-width="5" stroke-linecap="round"/>
<path d="M218.352 335.307C220.439 333.916 248.968 328.349 276.105 317.912C281.903 316.056 294.196 315.268 296.979 326.957" stroke="black" stroke-width="5" stroke-linecap="round"/>
<path d="M143.203 356.183C172.659 362.909 229.763 370.378 222.527 346.441C215.407 322.891 181.209 321.209 164.204 323.37C163.67 323.438 163.133 323.285 162.703 322.961C116 287.713 51.9295 330.575 27.0009 358.966C17.7233 370.099 13.0845 376.361 3.34302 391.669" stroke="black" stroke-width="5" stroke-linecap="round"/>
<path d="M137.637 121.809V121.809C136.74 121.805 136.347 122.925 137.071 123.454C155.614 137.007 196.118 159.547 229.189 153.856C229.383 153.823 229.581 153.846 229.761 153.924L260.538 167.276" stroke="black" stroke-width="5" stroke-linecap="round"/>
<path d="M109.108 71.6992C105.397 72.8589 98.1141 78.1008 98.6708 89.7906C99.5604 104.62 110.825 113.996 116.346 117.874C123.304 122.049 128.954 121.702 134.853 121.798V121.798C135.067 121.802 140.377 121.305 140.581 121.24C144.397 120.013 148.685 116.658 147.378 109.266" stroke="black" stroke-width="5" stroke-linecap="round"/>
<path d="M121.633 50.1289C116.298 51.9844 106.324 58.8962 109.108 71.6993C111.891 84.5024 114.026 88.1859 114.954 90.0414C118.257 97.198 123.647 101.315 126.009 102.527C126.063 102.554 126.109 102.583 126.158 102.618C129.382 104.994 137.758 108.276 147.378 109.266C150.007 109.537 158.668 109.771 160.599 109.969C168.252 109.969 173.123 107.019 170.34 95.0325" stroke="black" stroke-width="5" stroke-linecap="round"/>
<path d="M134.428 25.7754C129.287 25.7754 118.154 31.342 121.633 50.1291C124.416 65.1588 127.479 71.9503 131.654 76.821C135.829 81.6918 141.395 87.2584 149.745 89.7909L170.251 95.0102C170.31 95.0252 170.371 95.0348 170.432 95.0388L174.989 95.3427C175.135 95.3524 175.279 95.3316 175.414 95.276C179.611 93.5523 186.402 87.9687 181.473 78.6578" stroke="black" stroke-width="5" stroke-linecap="round"/>
<path d="M304.376 85.8652L280.076 74.0248C279.77 73.8756 279.563 73.593 279.519 73.2553C277.447 57.2753 264.717 24.4351 229.486 16.7281C193.86 8.93493 168.253 4.66723 159.904 3.50753C150.858 1.88395 133.045 3.2292 134.158 21.5989C134.245 23.0351 134.336 24.4269 134.429 25.7739C135.527 41.6543 139.308 46.8992 144.179 54.3025C151.979 65.7917 160.035 70.7553 163.662 72.6446C170.341 76.1237 188.432 84.2228 189.824 66.8273V59.8115" stroke="black" stroke-width="5" stroke-linecap="round"/>
<path d="M229.485 16.7266C219.744 17.4224 187.875 22.4323 171.732 25.7723C155.589 29.1123 159.439 43.3998 163.382 50.126C171.353 61.4176 201.726 59.6058 207.899 54.9794C208.34 54.6484 208.976 54.5831 209.415 54.9176C227.129 68.42 232.201 66.8257 255.51 66.8257" stroke="black" stroke-width="5" stroke-linecap="round"/>
<path d="M181.753 90.041L181.473 176.768" stroke="black" stroke-width="5" stroke-linecap="round"/>
<rect x="165.882" y="179.963" width="31.1827" height="17.2663" rx="8.63313" stroke="black" stroke-width="5"/>
<path d="M181.473 198.338L181.473 248.437" stroke="black" stroke-width="5" stroke-linecap="round"/>
<path d="M339.187 211.173L259.862 166.641C249.657 148.317 242.189 108.053 288.391 90.7965C330.816 74.9507 371.174 94.9118 390.657 106.045" stroke="black" stroke-width="5" stroke-linecap="round"/>
<path d="M160.511 224.271H179.473C180.578 224.271 181.473 225.167 181.473 226.271V243.146C181.473 244.251 180.578 245.146 179.473 245.146H166.773C165.669 245.146 164.773 244.251 164.773 243.146V239.492C164.773 238.388 165.669 237.492 166.773 237.492H168.34C169.445 237.492 170.34 236.597 170.34 235.492V234.621C170.34 233.517 169.445 232.621 168.34 232.621H160.511C159.406 232.621 158.511 231.726 158.511 230.621V226.271C158.511 225.167 159.406 224.271 160.511 224.271Z" fill="black"/>
</svg>
