<svg width="606" height="773" viewBox="0 0 606 773" fill="none" xmlns="http://www.w3.org/2000/svg">
<path d="M247.782 65.4575L241.937 32.7226" stroke="black" stroke-width="5" stroke-linecap="round"/>
<path d="M218.915 75.5883L180.585 39.9099" stroke="black" stroke-width="5" stroke-linecap="round"/>
<path d="M203.686 103.427L180.517 90.6242" stroke="black" stroke-width="5" stroke-linecap="round"/>
<path d="M386.372 699.923L369.164 685.844" stroke="black" stroke-width="5" stroke-linecap="round"/>
<path d="M386.372 746.463L357.431 728.864" stroke="black" stroke-width="5" stroke-linecap="round"/>
<path d="M386.372 721.824L348.045 694.057" stroke="black" stroke-width="5" stroke-linecap="round"/>
<path d="M509.567 3C501.204 5.84765 487.185 15.5516 498.013 31.5861C508.762 47.5025 518.447 34.0868 522.034 25.2114C522.088 25.0789 522.121 24.9455 522.134 24.8032C522.631 19.4984 521.399 9.93489 512.539 12.5287C503.559 15.1573 506.816 21.9479 509.567 25.0146" stroke="black" stroke-width="5" stroke-linecap="round"/>
<path d="M72.4745 558.793C69.6621 547.937 60.3249 527.917 45.4755 534.684C30.6261 541.452 39.2882 553.576 45.4755 558.793C49.6394 561.613 58.5905 564.63 61.0842 554.14C63.5779 543.651 53.0689 539.337 50.1159 543.99C48.5582 545.823 46.7993 550.419 52.2252 554.14" stroke="black" stroke-width="5" stroke-linecap="round"/>
<path d="M2.86035 213.407C4.81016 218.801 12.2779 229.871 26.5505 230.996C44.3912 232.404 46.731 236.907 46.0486 256.325C45.3661 275.744 47.4134 284.891 66.1316 279.825C84.8498 274.759 111.66 248.586 107.175 275.744C106.558 279.731 104.25 290.21 99.9607 300.229" stroke="black" stroke-width="5" stroke-linecap="round"/>
<path d="M305.111 397.445C269.756 353.33 282.818 319.097 293.769 307.494C298.775 344.726 328.445 359.509 342.655 362.247V375.544C338.275 372.415 315.801 388.841 305.111 397.445Z" fill="black"/>
<path d="M329.632 210.781C366.004 189.662 391.589 227.323 399.247 241.286C404.109 239.186 408.911 242.161 410.705 243.912V292.242C412.111 297.867 411.69 302.274 410.705 305.379V336.6C410.705 353.808 391.213 364.031 381.436 366.323L379.809 347.386C390.759 336.122 396.886 318.445 398.581 311.014C402.335 313.204 406.403 311.405 407.967 310.232C408.824 309.433 409.936 307.802 410.705 305.379V292.242C408.202 282.23 401.319 286.246 398.19 289.504L380.591 294.588C378.401 277.693 367.086 273.915 361.702 274.138C364.205 264.126 356.096 261.362 351.925 260.449C347.544 268.271 340.713 272.313 337.845 274.138C307.81 287.904 286.613 280.004 275.271 267.489C263.147 254.974 258.845 221.34 284.657 208.434C292.962 203.442 313.582 196.924 329.632 210.781Z" fill="black"/>
<path d="M380.083 294.865C380.083 306.52 371.658 315.593 361.702 315.593C351.746 315.593 343.321 306.52 343.321 294.865C343.321 283.212 351.746 274.138 361.702 274.138C371.658 274.138 380.083 283.212 380.083 294.865Z" stroke="black" stroke-width="5"/>
<path d="M330.806 301.906C330.806 313.56 322.381 322.633 312.425 322.633C302.468 322.633 294.043 313.56 294.043 301.906C294.043 290.252 302.468 281.178 312.425 281.178C322.381 281.178 330.806 290.252 330.806 301.906Z" stroke="black" stroke-width="5"/>
<path d="M330.918 297.513L343.208 296.129" stroke="black" stroke-width="5" stroke-linecap="round"/>
<path d="M341.756 347.663C347.02 348.724 353.668 343.64 353.668 337.773" stroke="black" stroke-width="5" stroke-linecap="round"/>
<path d="M339.801 308.162C337.845 317.939 331.901 326.856 340.974 331.236" stroke="black" stroke-width="5" stroke-linecap="round"/>
<path d="M308.123 321.965C311.363 321.965 313.989 319.339 313.989 316.099C313.989 312.859 311.363 310.232 308.123 310.232C304.883 310.232 302.256 312.859 302.256 316.099C302.256 319.339 304.883 321.965 308.123 321.965Z" fill="black"/>
<path d="M356.618 314.925C359.858 314.925 362.484 312.299 362.484 309.059C362.484 305.819 359.858 303.192 356.618 303.192C353.378 303.192 350.751 305.819 350.751 309.059C350.751 312.299 353.378 314.925 356.618 314.925Z" fill="black"/>
<path d="M403.939 295.647C404.852 297.212 406.13 300.966 403.939 303.469" stroke="black" stroke-width="5" stroke-linecap="round"/>
<path d="M294.825 280.509C290.002 295.631 289.419 330.611 323.522 354.702C357.625 378.793 383.881 345.968 392.745 326.543L398.611 310.509C402.653 312.986 410.813 314.419 411.126 300.34C411.439 286.261 405.782 285.349 402.913 286.652C401.349 287.304 398.064 289.546 397.438 293.301" stroke="black" stroke-width="5" stroke-linecap="round"/>
<path d="M380.474 294.084L400.029 288.608" stroke="black" stroke-width="5" stroke-linecap="round"/>
<path d="M358.573 294.594C361.794 294.49 368.493 295.907 369.524 302.41" stroke="black" stroke-width="5" stroke-linecap="round"/>
<path d="M301.474 300.72C303.686 299.246 309.328 296.96 314.195 299.614" stroke="black" stroke-width="5" stroke-linecap="round"/>
<path d="M381.045 364.367C374.136 370.103 356.171 380.245 342.718 373.362" stroke="black" stroke-width="5" stroke-linecap="round"/>
<path d="M191.498 496.947C189.933 487.952 184.267 476.298 167.372 471.917C159.941 470.222 145.862 466.051 145.08 459.403C144.385 453.499 150.164 452.501 153.684 453.544" stroke="black" stroke-width="5" stroke-linecap="round"/>
<path d="M167.763 464.095C151.326 459.402 131.893 417.556 145.851 417.556C151.447 417.556 156.141 430.071 159.66 436.719" stroke="black" stroke-width="5" stroke-linecap="round"/>
<path d="M165.749 419.902C172.456 419.902 174.098 419.981 180.669 437.501" stroke="black" stroke-width="5" stroke-linecap="round"/>
<path d="M177.541 428.115C178.714 425.508 182.468 422.874 188.1 433.199C192.011 440.369 196.939 456.508 207.263 460.576C217.588 464.643 217.823 468.397 218.605 470.744" stroke="black" stroke-width="5" stroke-linecap="round"/>
<path d="M221.087 481.694C196.841 479.739 183.309 506.568 212.093 562.259C248.074 631.873 335.677 680.759 360.707 503.595" stroke="black" stroke-width="5" stroke-linecap="round"/>
<path d="M221.089 481.695C228.911 483.39 249.56 496.556 269.584 535.665C294.614 584.551 255.505 467.224 306.738 392.917" stroke="black" stroke-width="5" stroke-linecap="round"/>
<path d="M158.487 412.863H169.828C174.58 412.863 178.432 416.716 178.432 421.467V425.769" stroke="black" stroke-width="5" stroke-linecap="round"/>
<path d="M164.353 412.863V359.675" stroke="black" stroke-width="5" stroke-linecap="round"/>
<path d="M141.67 385.486H162.789C163.652 385.486 164.353 384.786 164.353 383.922V364.367C164.353 363.503 163.652 362.803 162.789 362.803H148.282C147.419 362.803 146.718 363.503 146.718 364.367V369.555C146.718 370.42 147.419 371.12 148.282 371.12H151.032C151.896 371.12 152.596 371.82 152.596 372.684V374.848C152.596 375.713 151.896 376.413 151.032 376.413H141.67C140.806 376.413 140.105 377.113 140.105 377.977V383.922C140.105 384.786 140.806 385.486 141.67 385.486Z" fill="black"/>
<path d="M235.95 600.586V634.22C235.95 638.54 239.453 642.042 243.772 642.042H593.407C597.727 642.042 601.229 638.54 601.229 634.22V110.941C601.229 106.621 597.727 103.119 593.407 103.119H243.772C239.453 103.119 235.95 106.621 235.95 110.941V487.17" stroke="black" stroke-width="5" stroke-linecap="round"/>
<path d="M413.549 234.564L592.668 102.169C597.832 98.3527 605.14 102.038 605.14 108.459V635.423C605.14 637.932 603.937 640.287 601.907 641.758L422.787 771.499C417.616 775.245 410.376 771.55 410.376 765.164V240.854C410.376 238.372 411.554 236.038 413.549 234.564Z" fill="black"/>
<path d="M150.274 418.729C151.838 411.299 160.677 405.432 169.437 432.026" stroke="black" stroke-width="5" stroke-linecap="round"/>
</svg>
