<svg width="894" height="773" viewBox="0 0 894 773" fill="none" xmlns="http://www.w3.org/2000/svg">
<path d="M552.918 456.205V517.555" stroke="black" stroke-width="5" stroke-linecap="round"/>
<path d="M599.111 463.423V521.886" stroke="black" stroke-width="5" stroke-linecap="round"/>
<path d="M414.913 449.291L424.286 619.616C424.578 624.918 428.961 629.067 434.271 629.067H698.819C704.342 629.067 708.819 624.59 708.819 619.067V445.049C708.819 439.473 704.259 434.975 698.684 435.05L424.763 438.742C419.078 438.819 414.601 443.614 414.913 449.291Z" fill="black"/>
<rect x="423.001" y="631.593" width="285.818" height="13.7135" rx="6.85674" fill="black"/>
<path d="M599.833 358.768C624.974 358.407 680.309 377.533 702.323 437.8" stroke="black" stroke-width="5" stroke-linecap="round"/>
<path d="M544.618 358.406C487.238 369.594 459.811 394.133 438.158 441.409" stroke="black" stroke-width="5" stroke-linecap="round"/>
<path d="M736.607 415.487L750.681 392.029" stroke="black" stroke-width="5" stroke-linecap="round"/>
<path d="M750.681 421.982L769.808 406.104" stroke="black" stroke-width="5" stroke-linecap="round"/>
<path d="M753.568 432.809C757.297 434.253 765.766 435.624 769.808 429.562" stroke="black" stroke-width="5" stroke-linecap="round"/>
<path d="M384.387 411.094L362.734 388.72" stroke="black" stroke-width="5" stroke-linecap="round"/>
<path d="M406.401 407.486L393.409 373.924" stroke="black" stroke-width="5" stroke-linecap="round"/>
<path d="M378.974 423.726L362.734 417.591" stroke="black" stroke-width="5" stroke-linecap="round"/>
<path d="M368.869 611.944C372.514 611.82 376.581 611.65 381.111 611.423C408.513 610.053 408.389 591.235 404.5 580.582C404.099 579.483 403.422 578.491 402.599 577.658C376.86 551.618 354.194 559.517 344.799 567.702C343.963 568.431 343.318 569.369 342.84 570.371C328.878 599.651 333.31 609.356 338.621 611.114C339.939 611.551 341.374 611.65 342.753 611.801C346.208 612.18 354.037 612.447 368.869 611.944ZM368.869 611.944C367.185 605.381 365.91 589.153 374.283 576.739" stroke="black" stroke-width="5" stroke-linecap="round"/>
<path d="M315.098 596.948H237.148" stroke="black" stroke-width="5" stroke-linecap="round"/>
<path d="M808.783 596.948H891.425" stroke="black" stroke-width="5" stroke-linecap="round"/>
<path d="M716.759 478.28C730.111 499.211 745.268 524.112 716.759 570.965" stroke="black" stroke-width="5" stroke-linecap="round"/>
<path d="M383.483 766.624C376.843 755.076 398.039 753.392 409.466 753.993V762.294L446.637 766.624C428.352 771.436 390.123 778.172 383.483 766.624Z" fill="black"/>
<path d="M465.041 751.106L450.967 765.542" stroke="black" stroke-width="5" stroke-linecap="round"/>
<path d="M447.719 721.513L411.27 718.987" stroke="black" stroke-width="5" stroke-linecap="round"/>
<path d="M426.066 709.604L465.041 711.409" stroke="black" stroke-width="5" stroke-linecap="round"/>
<path d="M410.548 718.987L408.744 760.849" stroke="black" stroke-width="5" stroke-linecap="round"/>
<path d="M465.041 712.131V750.384" stroke="black" stroke-width="5" stroke-linecap="round"/>
<path d="M450.967 734.866V765.541" stroke="black" stroke-width="5" stroke-linecap="round"/>
<path d="M410.548 718.987L426.066 709.604" stroke="black" stroke-width="5" stroke-linecap="round"/>
<path d="M450.967 765.542L408.383 761.211" stroke="black" stroke-width="5" stroke-linecap="round"/>
<path d="M281.899 700.583C282.26 690.478 322.678 693.726 325.204 694.087V700.583L337.474 709.244C318.829 709.725 281.61 708.667 281.899 700.583Z" fill="black"/>
<path d="M382.223 699.5V662.69" stroke="black" stroke-width="5" stroke-linecap="round"/>
<path d="M350.827 708.884V668.465" stroke="black" stroke-width="5" stroke-linecap="round"/>
<path d="M324.843 699.5V659.081" stroke="black" stroke-width="5" stroke-linecap="round"/>
<path d="M324.843 659.082L353.353 651.864" stroke="black" stroke-width="5" stroke-linecap="round"/>
<path d="M382.223 662.329L350.827 668.103" stroke="black" stroke-width="5" stroke-linecap="round"/>
<path d="M350.827 709.244L382.223 699.861" stroke="black" stroke-width="5" stroke-linecap="round"/>
<path d="M382.223 662.33L353.353 651.864" stroke="black" stroke-width="5" stroke-linecap="round"/>
<path d="M324.843 659.442L351.188 668.104" stroke="black" stroke-width="5" stroke-linecap="round"/>
<path d="M600.194 360.572C603.442 351.189 600.483 344.875 597.596 343.672C580.274 359.551 554.001 353.656 544.257 344.033C540.793 347.209 542.814 356.602 544.257 359.489C563.023 380.276 589.728 368.631 600.194 360.572Z" fill="black"/>
<path d="M523.326 418.313L525.374 415.169C533.2 403.157 548.432 398.361 561.729 403.722L563.615 404.483C575.554 409.297 589.234 405.958 597.612 396.183L609.577 382.225" stroke="black" stroke-width="5" stroke-linecap="round"/>
<path d="M410.371 491.571C404.957 504.322 398.534 535.238 416.145 556.891" stroke="black" stroke-width="5" stroke-linecap="round"/>
<path d="M649.955 213.048C642.015 241.557 638.046 244.084 626.498 256.714C626.498 244.232 624.353 223.279 624.353 214.555C586.54 214.555 554.629 199.119 543.4 191.401C543.802 217.575 519.264 234.688 519.264 234.688C519.264 234.688 522.784 245.258 524.795 268.915C526.404 287.841 521.778 284.183 519.264 279.989C512.024 256.634 500.157 262.875 495.128 268.915C433.427 168.66 528.314 149.288 546.416 151.134C560.093 139.456 579.166 130.305 592.575 128.963C640.933 124.122 662.828 166.821 649.955 213.048Z" fill="black"/>
<path d="M520.109 297.832C526.605 337.489 570.205 366.006 601.668 333.881C633.132 301.756 626.835 242.952 623.474 215.512" stroke="black" stroke-width="5" stroke-linecap="round"/>
<path d="M494.415 266.458C490.445 276.202 494.17 297.793 520.11 297.793" stroke="black" stroke-width="5" stroke-linecap="round"/>
<path d="M505.856 271.81C505.281 273.895 505.741 278.835 512.17 281.914" stroke="black" stroke-width="5" stroke-linecap="round"/>
<path d="M622.6 292.741C631.066 289.211 637.035 276.14 634.739 255.209" stroke="black" stroke-width="5" stroke-linecap="round"/>
<path d="M574.963 316.559C583.264 318.724 582.739 312.766 589.038 307.537" stroke="black" stroke-width="5" stroke-linecap="round"/>
<circle cx="599.741" cy="266.144" r="5.41321" fill="black"/>
<circle cx="552.105" cy="266.865" r="5.41321" fill="black"/>
<path d="M540.319 254.487C541.458 251.133 546.373 244.928 556.919 246.941" stroke="black" stroke-width="5" stroke-linecap="round"/>
<path d="M590.842 247.992C593.357 245.813 600.199 242.763 607.443 247.992" stroke="black" stroke-width="5" stroke-linecap="round"/>
<path d="M573.38 263.148C572.54 270.275 571.968 284.728 576.407 285.523" stroke="black" stroke-width="5" stroke-linecap="round"/>
<circle cx="40.4677" cy="38.7275" r="12.6308" fill="black"/>
<circle cx="78.7212" cy="38.7275" r="10.1308" stroke="black" stroke-width="5"/>
<circle cx="116.974" cy="38.7275" r="10.1308" stroke="black" stroke-width="5"/>
<path d="M2.5752 74.4541L538.844 74.4541" stroke="black" stroke-width="5" stroke-linecap="round"/>
<circle cx="271.792" cy="171.892" r="53.4104" fill="black"/>
<rect x="143.654" y="263.169" width="255.556" height="34.6969" rx="7.5" stroke="black" stroke-width="5"/>
<rect x="143.654" y="317.301" width="255.556" height="34.6969" rx="7.5" stroke="black" stroke-width="5"/>
<circle cx="162.445" cy="334.65" r="5.41321" fill="black"/>
<circle cx="180.489" cy="334.65" r="5.41321" fill="black"/>
<circle cx="198.534" cy="334.65" r="5.41321" fill="black"/>
<circle cx="216.578" cy="334.65" r="5.41321" fill="black"/>
<circle cx="234.622" cy="334.65" r="5.41321" fill="black"/>
<circle cx="252.666" cy="334.65" r="5.41321" fill="black"/>
<circle cx="270.71" cy="334.65" r="5.41321" fill="black"/>
<path d="M2.5752 413.322V53C2.5752 25.3858 24.961 3 52.5752 3H489.205C516.819 3 539.205 25.3858 539.205 53V127.504" stroke="black" stroke-width="5" stroke-linecap="round"/>
<path d="M754.767 596.603C747.638 595.256 733.715 597.666 742.05 615.068C748.408 628.341 758.233 635.266 761.124 638.15" stroke="black" stroke-width="5" stroke-linecap="round"/>
<path d="M772.429 655.807C756.513 642.202 756.329 607.66 758.49 589.377C758.641 588.103 759.952 587.341 761.174 587.732C776.644 592.688 795.071 590.062 804.392 587.574C805.602 587.251 806.842 588.073 806.979 589.318C811.653 631.88 799.743 650.923 793.051 655.825C792.968 655.887 792.887 655.935 792.793 655.981C789.046 657.809 780.038 660.258 772.698 655.997C772.603 655.942 772.513 655.878 772.429 655.807Z" stroke="black" stroke-width="5" stroke-linecap="round"/>
<ellipse cx="782.777" cy="586.544" rx="25.2617" ry="4.69145" fill="black"/>
<path d="M788.674 570.305C792.533 566.537 797.934 554.773 788.674 537.855C779.414 520.938 789.545 505.284 795.769 499.572" stroke="black" stroke-width="5" stroke-linecap="round"/>
<path d="M776.281 553.704C770.908 545.765 762.485 526.421 771.782 512.563" stroke="black" stroke-width="5" stroke-linecap="round"/>
<path d="M819.179 656.142C830.375 649.994 810.332 651.178 799.394 651.338L793.603 657.102C805.667 659.504 814.836 658.063 819.179 656.142Z" fill="black"/>
</svg>
