<svg width="414" height="770" viewBox="0 0 414 770" fill="none" xmlns="http://www.w3.org/2000/svg">
<path d="M170.174 534.713C170.174 531.951 172.412 529.713 175.174 529.713H251.657C254.419 529.713 256.657 531.951 256.657 534.713V590.3C256.657 601.346 247.703 610.3 236.657 610.3H190.174C179.128 610.3 170.174 601.346 170.174 590.3V534.713Z" fill="black"/>
<path d="M239.416 519.885V538.023H187.415V519.885C187.415 505.526 199.056 493.885 213.415 493.885C227.775 493.885 239.416 505.526 239.416 519.885Z" stroke="black" stroke-width="5"/>
<circle cx="213.415" cy="564.11" r="9.8277" fill="white"/>
<rect x="209.484" y="568.041" width="7.86216" height="17.6899" rx="3.93108" fill="white"/>
<path d="M249.287 313.42C283.52 312.929 358.865 338.972 388.84 421.033" stroke="black" stroke-width="5" stroke-linecap="round"/>
<path d="M174.105 312.929C95.9746 328.162 58.6293 361.576 29.1462 425.947" stroke="black" stroke-width="5" stroke-linecap="round"/>
<path d="M249.778 315.877C254.2 303.101 250.171 294.503 246.24 292.865C222.654 314.486 186.881 306.46 173.613 293.357C168.896 297.681 171.648 310.471 173.613 314.402C199.165 342.706 235.528 326.851 249.778 315.877Z" fill="black"/>
<path d="M145.113 394.499L152.773 382.742C160.599 370.73 175.831 365.934 189.128 371.295L207.196 378.581C219.135 383.395 232.815 380.056 241.193 370.282L262.554 345.36" stroke="black" stroke-width="5" stroke-linecap="round"/>
<path d="M317.533 115.004C306.723 153.824 301.318 157.263 285.593 174.462C285.593 157.465 282.673 128.935 282.673 117.056C231.187 117.056 187.735 96.038 172.445 85.5291C172.993 121.168 139.582 144.47 139.582 144.47C139.582 144.47 144.374 158.863 147.113 191.075C149.304 216.845 143.005 211.864 139.582 206.153C129.723 174.352 113.564 182.851 106.718 191.075C22.7033 54.5639 151.905 28.1871 176.552 30.7001C195.175 14.7997 221.146 2.33921 239.403 0.511585C305.249 -6.07977 335.062 52.0599 317.533 115.004Z" fill="black"/>
<path d="M140.733 230.45C149.578 284.448 208.945 323.277 251.786 279.535C294.627 235.792 286.054 155.724 281.477 118.36" stroke="black" stroke-width="5" stroke-linecap="round"/>
<path d="M105.747 187.729C100.341 200.997 105.413 230.396 140.733 230.396" stroke="black" stroke-width="5" stroke-linecap="round"/>
<path d="M121.324 195.017C120.543 197.856 121.168 204.582 129.922 208.775" stroke="black" stroke-width="5" stroke-linecap="round"/>
<path d="M280.286 223.517C291.814 218.711 299.941 200.913 296.815 172.413" stroke="black" stroke-width="5" stroke-linecap="round"/>
<path d="M215.423 255.948C226.725 258.896 226.01 250.783 234.587 243.663" stroke="black" stroke-width="5" stroke-linecap="round"/>
<circle cx="249.161" cy="187.301" r="7.37077" fill="black"/>
<circle cx="184.299" cy="188.284" r="7.37077" fill="black"/>
<path d="M168.25 171.43C169.802 166.863 176.494 158.414 190.854 161.154" stroke="black" stroke-width="5" stroke-linecap="round"/>
<path d="M237.044 162.585C240.469 159.619 249.784 155.466 259.648 162.585" stroke="black" stroke-width="5" stroke-linecap="round"/>
<path d="M213.268 183.224C212.123 192.928 211.345 212.606 217.389 213.689" stroke="black" stroke-width="5" stroke-linecap="round"/>
<path d="M370.167 526.273C368.103 532.601 367.944 535.386 365.745 541.506" stroke="black" stroke-width="5" stroke-linecap="round"/>
<path d="M342.081 598.016C303.337 682.278 255.336 740.23 227.682 764.961C224.267 768.016 219.199 768.074 215.571 765.275C152.045 716.287 109.12 665.632 79.7588 617.671" stroke="black" stroke-width="5" stroke-linecap="round"/>
<path d="M377.047 505.144C383.001 484.879 387.463 465.254 391.492 443.431C392.272 439.204 390.253 434.955 386.405 433.039C323.567 401.753 174.515 365.858 26.6205 448.547C23.3525 450.374 21.3774 453.933 21.7004 457.663C23.0378 473.108 26.926 495.091 35.32 521.36" stroke="black" stroke-width="5" stroke-linecap="round"/>
<path d="M370.658 559.196C364.384 561.078 354.413 564.608 346.089 568.771C337.328 573.937 328.399 564.109 339.701 556.739C345.106 553.463 358.275 545.928 367.71 541.997C377.144 538.066 373.607 527.256 369.675 524.307C364.434 519.557 350.02 510.548 358.865 505.143C362.305 503.669 366.629 503.964 376.063 507.109C377.865 507.764 382.353 508.681 385.891 507.109" stroke="black" stroke-width="5" stroke-linecap="round"/>
<path d="M370.658 559.196C364.385 561.078 354.413 564.608 346.089 568.772C339.201 572.217 334.982 574.914 332.822 578.36C328.891 584.632 336.754 589.778 341.667 586.714L365.055 575.148" stroke="black" stroke-width="5" stroke-linecap="round"/>
<path d="M365.744 588.188C363.392 589.515 360.2 591.464 357.145 593.593C345.399 599.717 339.994 598.243 338.029 588.415" stroke="black" stroke-width="5" stroke-linecap="round"/>
<path d="M381.469 486.471C393.59 492.04 413.605 515.462 396.702 564.601C393.659 573.446 378.422 590.743 368.201 598.998C355.425 609.317 348.546 608.826 347.563 603.912C347.067 601.428 351.904 597.245 357.145 593.593C360.2 591.463 363.392 589.514 365.745 588.187" stroke="black" stroke-width="5" stroke-linecap="round"/>
<path d="M403.581 540.523C411.771 526.601 419.993 492.269 387.365 466.324" stroke="black" stroke-width="5" stroke-linecap="round"/>
<path d="M71.4053 569.903C74.845 569.903 76.3192 569.896 78.2847 569.903C87.2934 569.937 103.837 567.746 97.9401 558.704C95.3764 554.773 85.3685 550.814 62.069 545.437C49.293 542.488 57.6466 532.661 65.0173 522.342C67.976 518.2 73.0901 506.617 65.0173 504.16C53.7155 500.721 37.9913 525.29 29.1462 524.799" stroke="black" stroke-width="5" stroke-linecap="round"/>
<path d="M71.4053 586.222C78.776 587.696 81.731 588.421 89.0951 590.288C111.387 595.942 116.613 584.748 110.716 577.868C105.163 571.39 86.6483 571.079 78.2847 569.903" stroke="black" stroke-width="5" stroke-linecap="round"/>
<path d="M83.1985 605.75C94.009 608.334 103.569 607.351 102.854 599.489C102.308 593.481 97.9152 592.525 89.0951 590.288C81.731 588.421 78.776 587.696 71.4053 586.222" stroke="black" stroke-width="5" stroke-linecap="round"/>
<path d="M32.0946 510.549C21.1203 513.661 3.1029 553.299 27.1808 581.8C34.6455 590.635 55.0914 616.688 82.2159 616.688C87.6635 616.688 90.9879 611.026 83.1986 605.75C79.7462 603.412 74.1105 601.149 65.5088 599.489" stroke="black" stroke-width="5" stroke-linecap="round"/>
<path d="M25.215 482.049C9.65448 492.695 -13.113 525.487 20.3012 571.481" stroke="black" stroke-width="5" stroke-linecap="round"/>
</svg>
