<svg width="624" height="773" viewBox="0 0 624 773" fill="none" xmlns="http://www.w3.org/2000/svg">
<path d="M231.531 573.149L246.657 549.931C254.484 537.919 269.715 533.123 283.012 538.485L322.614 554.453C334.553 559.267 348.233 555.928 356.61 546.153L390.474 506.646" stroke="black" stroke-width="5" stroke-linecap="round"/>
<path d="M79.9019 691.526C79.9019 672.905 90.2574 668.018 96.2427 666.688C104.001 665.126 116.08 660.788 103.843 648.297" stroke="black" stroke-width="5" stroke-linecap="round"/>
<path d="M47.6951 647.401C50.3552 640.529 56.9646 628.565 81.232 627.017C112.486 625.022 111.159 640.981 108.876 644.077C107.869 645.443 105.709 647.888 103.843 648.296C93.2973 650.608 75.9423 643.815 68.5963 663.592" stroke="black" stroke-width="5" stroke-linecap="round"/>
<path d="M81.2324 627.016C88.5478 609.726 64.6064 608.395 55.296 609.725C49.3106 611.056 34.4549 614.15 23.0865 632.771C18.864 639.687 14.6465 649.563 11.6777 661.367C5.60658 685.506 7.12572 734.753 28.0294 768.005" stroke="black" stroke-width="5" stroke-linecap="round"/>
<path d="M23.0861 632.771C21.7561 626.786 16.7019 616.413 7.12533 622.796C-4.84535 630.776 11.574 652.057 11.6773 661.368" stroke="black" stroke-width="5" stroke-linecap="round"/>
<path d="M538.777 743.409C537.668 749.613 543.964 761.354 578.014 758.694" stroke="black" stroke-width="5" stroke-linecap="round"/>
<path d="M530.133 730.098C526.402 733.82 529.444 741.851 538.776 743.409C544.693 744.397 554.546 744.399 570.033 742.733" stroke="black" stroke-width="5" stroke-linecap="round"/>
<path d="M602.938 684.21C568.609 692.722 535.22 705.491 522.817 710.811C516.167 713.664 511.495 722.733 518.163 727.437C519.937 728.609 524.815 730.782 530.134 730.098C552.745 727.437 561.391 724.112 570.034 720.122" stroke="black" stroke-width="5" stroke-linecap="round"/>
<path d="M574.024 660.269C582.006 664.209 593.378 672.295 602.938 684.21C614.351 698.436 623.182 718.123 620.577 742.733" stroke="black" stroke-width="5" stroke-linecap="round"/>
<path d="M341.262 732.91L367.198 730.612M379.834 769.335L374.514 730.098L327.961 734.088C328.626 741.404 331.951 766.941 331.951 768.005" stroke="black" stroke-width="5" stroke-linecap="round"/>
<path d="M327.961 734.089L61.9458 700.172L77.2417 768.005" stroke="black" stroke-width="5" stroke-linecap="round"/>
<path d="M571.364 681.55L573.36 591.771L367.198 730.612" stroke="black" stroke-width="5" stroke-linecap="round"/>
<path d="M377.839 702.831C396.681 683.988 445.007 641.913 487.57 624.356" stroke="black" stroke-width="5" stroke-linecap="round"/>
<path d="M341.262 732.91C379.352 625.065 481.701 592.648 545.961 590.612" stroke="black" stroke-width="5" stroke-linecap="round"/>
<path d="M341.262 732.91C347.203 696.099 382.362 595.874 512.709 564.617L517.364 581.243" stroke="black" stroke-width="5" stroke-linecap="round"/>
<path d="M341.262 732.91C277.95 653.106 173.672 655.614 120.469 662.264" stroke="black" stroke-width="5" stroke-linecap="round"/>
<path d="M236.186 646.968C225.324 636.992 192.16 617.44 146.406 619.036" stroke="black" stroke-width="5" stroke-linecap="round"/>
<path d="M341.262 732.91C328.182 680.372 262.255 569.824 84.5571 577.805L91.8725 609.061" stroke="black" stroke-width="5" stroke-linecap="round"/>
<path d="M29.3591 768.67L621.242 770" stroke="black" stroke-width="5" stroke-linecap="round"/>
<path d="M379.701 424.303C421.464 423.641 513.383 458.725 549.951 569.272" stroke="black" stroke-width="5" stroke-linecap="round"/>
<path d="M278.616 422.964C181.119 443.58 134.517 488.803 97.7253 575.922" stroke="black" stroke-width="5" stroke-linecap="round"/>
<path d="M380.366 427.506C386.351 410.215 380.899 398.579 375.579 396.362C343.657 425.624 295.241 414.762 277.286 397.027C270.901 402.88 274.625 420.19 277.285 425.511C311.867 463.817 361.08 442.358 380.366 427.506Z" fill="black"/>
<path d="M472.066 155.646C457.435 208.184 450.12 212.839 428.839 236.116C428.839 213.112 424.886 174.5 424.886 158.423C355.205 158.423 296.398 129.977 275.704 115.755C276.446 163.988 231.227 195.525 231.227 195.525C231.227 195.525 237.714 215.004 241.42 258.6C244.385 293.476 235.86 286.736 231.227 279.006C217.884 235.967 196.016 247.469 186.749 258.6C73.0447 73.8465 247.905 38.1483 281.263 41.5493C306.467 20.0298 341.616 3.16587 366.325 0.692377C455.44 -8.22833 495.789 70.4576 472.066 155.646Z" fill="black"/>
<path d="M232.785 311.889C244.756 384.97 325.103 437.52 383.084 378.32C441.064 319.119 429.462 210.755 423.267 160.188" stroke="black" stroke-width="5" stroke-linecap="round"/>
<path d="M185.435 254.071C178.12 272.027 184.983 311.816 232.786 311.816" stroke="black" stroke-width="5" stroke-linecap="round"/>
<path d="M206.518 263.934C205.46 267.776 206.306 276.88 218.154 282.555" stroke="black" stroke-width="5" stroke-linecap="round"/>
<path d="M421.656 302.506C437.258 296.001 448.257 271.914 444.026 233.342" stroke="black" stroke-width="5" stroke-linecap="round"/>
<path d="M333.871 346.398C349.167 350.389 348.199 339.408 359.807 329.772" stroke="black" stroke-width="5" stroke-linecap="round"/>
<circle cx="381.089" cy="252.628" r="9.97556" fill="black"/>
<circle cx="293.304" cy="253.958" r="9.97556" fill="black"/>
<path d="M270.027 232.012C272.127 225.831 281.184 214.397 300.619 218.105" stroke="black" stroke-width="5" stroke-linecap="round"/>
<path d="M363.133 220.041C367.768 216.026 380.375 210.405 393.724 220.041" stroke="black" stroke-width="5" stroke-linecap="round"/>
<path d="M330.954 247.973C329.405 261.106 328.351 287.739 336.531 289.205" stroke="black" stroke-width="5" stroke-linecap="round"/>
</svg>
