<?xml version="1.0" encoding="utf-8"?>
<svg width="1500px" height="1000px" viewBox="0 0 1500 1000" version="1.1" xmlns:xlink="http://www.w3.org/1999/xlink" xmlns="http://www.w3.org/2000/svg">
  <defs>
    <path d="M0 0L1500 0L1500 1000L0 1000L0 0Z" id="path_1" />
    <path d="M0 0L194 0L194 194L0 194L0 0Z" id="path_2" />
    <path d="M0 0L151.409 0L151.409 152L0 152L0 0Z" id="path_3" />
    <path d="M0 0L159.06 0L159.06 129.72L0 129.72L0 0Z" id="path_4" />
    <clipPath id="clip_1">
      <use xlink:href="#path_1" />
    </clipPath>
    <clipPath id="clip_2">
      <use xlink:href="#path_2" />
    </clipPath>
    <clipPath id="clip_3">
      <use xlink:href="#path_3" />
    </clipPath>
    <clipPath id="clip_4">
      <use xlink:href="#path_4" />
    </clipPath>
  </defs>
  <g id="Cadre Copy" clip-path="url(#clip_1)">
    <path d="M0 0L1500 0L1500 1000L0 1000L0 0Z" id="Cadre-Copy" fill="#FFFFFF" fill-rule="evenodd" stroke="none" />
    <path d="M123.014 837.878C124.339 821.93 219.816 815.446 336.269 823.396C452.721 831.347 546.05 850.721 544.725 866.669C543.399 882.618 447.922 889.102 331.47 881.151C215.018 873.201 121.688 853.827 123.014 837.878Z" id="Ovale" fill="#000000" fill-opacity="0.2" fill-rule="evenodd" stroke="none" />
    <path d="M420.5 791.4C268.96 917.63 185 810.89 185 756.13C367.67 731.99 392.85 677.23 416.92 641.96C442.52 622 458.39 622 470.159 622C509.89 626.09 588.77 717.76 623.239 763.09C598.67 793.9 517.77 858.23 482.96 870.76L420.5 791.4L420.5 791.4Z" id="Forme" fill="#000000" stroke="none" />
    <path d="M312.031 376.672C316.281 333.212 295.531 310.352 284.621 304.352C319.901 322.372 354.682 310.662 367.651 302.552L371.632 321.862C395.802 324.072 401.562 294.372 401.411 279.242C401.191 255.902 372.712 227.082 316.052 238.632C259.382 250.192 228.281 292.682 219.821 312.482C179.252 302.372 135.661 329.892 118.941 344.912C101.661 360.502 65.2617 407.652 90.8213 460.282C125.302 531.302 217.021 513.662 232.002 506.682C283.731 482.542 306.722 431.002 312.031 376.672L312.031 376.672Z" id="Forme-2" fill="#000000" stroke="none" />
    <g id="php" clip-path="url(#clip_2)" transform="translate(343.7002 61)">
      <path d="M0 0L194 0L194 194L0 194L0 0Z" id="php" fill="none" fill-rule="evenodd" stroke="none" />
      <path d="M56.6645 82.5068L49.0338 82.5068L44.8708 103.912L51.6447 103.912C56.1391 103.912 59.4857 103.063 61.6843 101.373C63.883 99.676 65.3622 96.8549 66.1302 92.894C66.8739 89.0948 66.5344 86.4112 65.1278 84.8511C63.7133 83.2909 60.9002 82.5068 56.6645 82.5068L56.6645 82.5068ZM97.0009 45.978C43.4322 45.978 0 68.8218 0 97.0006C0 125.179 43.4322 148.031 97.0009 148.031C150.57 148.031 194.002 125.179 194.002 97.0006C194.002 68.8218 150.57 45.978 97.0009 45.978L97.0009 45.978ZM70.6492 106.207C68.5394 108.228 66.0012 109.748 63.2367 110.661C60.5207 111.534 57.0529 111.987 52.8495 111.987L43.303 111.987L40.6597 125.575L29.5208 125.575L39.4634 74.4394L60.8844 74.4394C67.3269 74.4394 72.0233 76.1288 74.9819 79.5158C77.9404 82.8947 78.8296 87.6154 77.6493 93.6779C77.1974 96.0769 76.3651 98.3882 75.184 100.525C74.0281 102.586 72.5164 104.486 70.6492 106.207L70.6492 106.207ZM103.176 111.987L107.565 89.3612C108.075 86.7907 107.881 85.0285 107.016 84.0989C106.151 83.1612 104.3 82.6924 101.462 82.6924L92.6352 82.6924L86.9445 111.995L75.8864 111.995L85.829 60.851L96.879 60.851L94.2357 74.4473L104.081 74.4473C110.281 74.4473 114.549 75.5305 116.902 77.6887C119.254 79.847 119.957 83.3471 119.028 88.1891L114.404 111.987L103.176 111.987L103.176 111.987ZM164.586 93.6777C164.141 96.0786 163.309 98.3911 162.12 100.524C160.964 102.586 159.453 104.485 157.586 106.207C155.475 108.222 152.943 109.743 150.173 110.661C147.457 111.534 143.989 111.987 139.778 111.987L130.239 111.987L127.596 125.583L116.457 125.583L126.4 74.4473L147.813 74.4473C154.255 74.4473 158.952 76.1367 161.91 79.5236C164.869 82.8944 165.766 87.6152 164.586 93.6777L164.586 93.6777ZM143.609 82.5068L135.986 82.5068L131.815 103.912L138.589 103.912C143.091 103.912 146.438 103.063 148.629 101.373C150.827 99.676 152.307 96.8549 153.083 92.894C153.826 89.0948 153.479 86.4112 152.072 84.8511C150.666 83.2909 147.836 82.5068 143.609 82.5068L143.609 82.5068Z" id="Forme" fill="#000000" fill-rule="evenodd" stroke="none" />
    </g>
    <path d="M389.606 368.8C388.396 376.18 385.387 382.49 381.626 386.73C377.816 391.02 373.606 392.85 369.887 392.35C366.166 391.85 362.717 388.99 360.446 383.88C358.206 378.84 357.337 372.01 358.547 364.63C359.746 357.25 362.767 350.95 366.526 346.71C370.337 342.42 374.547 340.58 378.267 341.08C381.986 341.58 385.427 344.44 387.696 349.55C389.946 354.6 390.807 361.42 389.606 368.8L389.606 368.8Z" id="Forme-3" fill="none" stroke="#000000" stroke-width="5" />
    <path d="M374.296 376.271C377.386 376.69 380.556 372.94 381.376 367.9C382.206 362.871 380.365 358.451 377.275 358.031C374.195 357.621 371.025 361.361 370.195 366.4C369.376 371.44 371.216 375.861 374.296 376.271L374.296 376.271Z" id="Forme-4" fill="#000000" stroke="none" />
    <g id="Groupes" transform="translate(312 368)">
      <path d="M0 4.56982L45.3096 0" id="Ligne" fill="none" fill-rule="evenodd" stroke="#000000" stroke-width="5" stroke-linecap="round" />
    </g>
    <path d="M376.921 323C380.75 329.99 392.04 345.25 403.83 353.79C415.891 362.53 416.91 373.67 409.211 381.7L397.211 394.32C403.83 440.23 394.08 474.23 332 490.06" id="Forme-5" fill="none" stroke="#000000" stroke-width="5" stroke-linecap="round" />
    <path d="M330.291 414.845C331.761 415.045 333.121 414.125 333.341 412.795C333.561 411.465 332.541 410.225 331.081 410.025C329.61 409.835 328.251 410.745 328.03 412.075C327.811 413.405 328.82 414.645 330.291 414.845L330.291 414.845Z" id="Forme-6" fill="#000000" stroke="none" />
    <path d="M320.815 436.856C322.575 437.086 324.175 436.207 324.396 434.876C324.615 433.546 323.365 432.276 321.605 432.037C319.846 431.807 318.235 432.687 318.025 434.017C317.806 435.347 319.056 436.616 320.815 436.856L320.815 436.856Z" id="Forme-7" fill="#000000" stroke="none" />
    <path d="M344.815 433.849C346.575 434.089 348.186 433.199 348.396 431.869C348.615 430.539 347.365 429.269 345.605 429.039C343.845 428.799 342.245 429.689 342.025 431.019C341.805 432.349 343.055 433.619 344.815 433.849L344.815 433.849Z" id="Forme-8" fill="#000000" stroke="none" />
    <path d="M231.73 516C156.51 565.74 153 680.21 153 756.87" id="Forme-9" fill="none" stroke="#000000" stroke-width="5" stroke-linecap="round" />
    <path d="M234 516.844L270.109 545.484C271.28 546.415 273.12 545.864 273.46 544.484L282.87 505.455C283.22 504.015 285.21 503.504 286.34 504.564L310.79 527.475" id="Forme-10" fill="none" stroke="#000000" stroke-width="5" stroke-linecap="round" />
    <path d="M311 494C313 497.4 315.88 502.93 318.569 509.35C322.26 518.17 325.609 528.68 325.91 537.71" id="Forme-11" fill="none" stroke="#000000" stroke-width="5" stroke-linecap="round" />
    <path d="M266 573.33C278.329 588.47 347.779 630.41 397.77 584.39L411.399 571" id="Forme-12" fill="none" stroke="#000000" stroke-width="5" stroke-linecap="round" />
    <path d="M153 757.31C352.66 744.31 393.11 679.8 413.63 644" id="Forme-13" fill="none" stroke="#000000" stroke-width="5" stroke-linecap="round" />
    <path d="M245 685.63C295.17 724.03 393.79 679.8 414.31 644" id="Forme-14" fill="none" stroke="#000000" stroke-width="5" stroke-linecap="round" />
    <path d="M408 599.08C413.489 616.97 415.04 632.07 413.939 644.72C426.17 637.11 437.85 631.26 437.85 607.27C437.85 590.3 424.22 575.68 411.89 571" id="Forme-15" fill="none" stroke="#000000" stroke-width="5" stroke-linecap="round" />
    <path d="M306.12 559.14C308.95 559.14 311.24 556.65 311.24 553.57C311.24 550.5 308.95 548 306.12 548C303.29 548 301 550.5 301 553.57C301 556.65 303.29 559.14 306.12 559.14L306.12 559.14Z" id="Forme-16" fill="#000000" stroke="none" />
    <path d="M313.12 585.14C315.95 585.14 318.24 582.64 318.24 579.57C318.24 576.49 315.95 574 313.12 574C310.29 574 308 576.49 308 579.57C308 582.64 310.29 585.14 313.12 585.14L313.12 585.14Z" id="Forme-17" fill="#000000" stroke="none" />
    <path d="M367.121 432C366.461 435.62 368.172 443.1 380.312 444.06" id="Forme-18" fill="none" stroke="#000000" stroke-width="5" stroke-linecap="round" />
    <g id="Groupes-2" transform="translate(322 512)">
      <path d="M0 0L67.4795 36.1802" id="Ligne" fill="none" fill-rule="evenodd" stroke="#000000" stroke-width="5" stroke-linecap="round" />
    </g>
    <path d="M495.66 559.85C498.011 556.87 499.2 554.149 498.12 552.279C495 546.83 487.32 552.419 483.87 555.899C475.28 564.27 458.75 578.819 463.21 561.89C467.66 544.959 458.19 546 436 566.669" id="Forme-19" fill="none" stroke="#000000" stroke-width="5" stroke-linecap="round" />
    <path d="M494.141 586C496.04 591.3 493 603.55 465.07 606.52C454.5 607.64 452.921 607.48 443 606.73" id="Forme-20" fill="none" stroke="#000000" stroke-width="5" stroke-linecap="round" />
    <path d="M477 576.001C482.489 572.331 491.239 565.681 495.729 560.001C500.609 559.941 505.329 562.441 497.8 571.151C494.539 574.921 488.989 579.851 480.149 586.261" id="Forme-21" fill="none" stroke="#000000" stroke-width="5" stroke-linecap="round" />
    <path d="M480 586.11C488.841 579.71 494.391 574.77 497.65 571C502.301 572.19 506.49 576.79 493.771 586.39C490.99 588.49 487.4 590.83 482.83 593.43" id="Forme-22" fill="none" stroke="#000000" stroke-width="5" stroke-linecap="round" />
    <path d="M524.521 851.155C547.052 869.726 573.162 851.775 583.401 840.485C585.962 837.855 583.401 835.375 570.092 839.085C559.842 841.945 552.342 833.056 550.122 829.346L558.312 823.315C577.252 840.945 638.691 814.025 656.102 817.275C670.021 819.875 664.292 828.875 659.682 833.056C646.882 843.735 613.712 867.865 583.401 879.005C545.512 892.925 534.762 874.365 524.521 861.835C516.332 851.806 521.111 850.536 524.521 851.155L524.521 851.155Z" id="Forme-23" fill="#000000" stroke="none" />
    <path d="M610.061 819.978C648.971 806.607 666.211 810.688 669.961 814.408C683.101 806.978 705.591 790.647 690.44 784.698C671.501 777.277 629.521 796.308 615.181 800.948C603.711 804.658 596.411 800.638 594.19 798.158C589.581 794.908 585.49 807.448 600.851 809.297C618.721 811.458 615.181 811.158 610.57 814.868C606.891 817.837 608.701 819.508 610.061 819.978L610.061 819.978Z" id="Forme-24" fill="#000000" stroke="none" />
    <path d="M485.811 602.015L522.771 609.995C525.88 610.665 528.82 608.285 528.82 605.104L528.82 539.415C528.82 537.185 527.34 535.225 525.2 534.615L457.38 515.194C454.18 514.285 451 516.685 451 520.004L451 553.754" id="Forme-25" fill="none" stroke="#000000" stroke-width="5" stroke-linecap="round" />
    <path d="M527 604.412L527 536.772C527 534.672 528.311 532.802 530.28 532.072L586.83 511.312C590.101 510.112 593.561 512.522 593.561 516.002L593.561 581.202C593.561 583.232 592.33 585.062 590.45 585.832L533.9 609.042C530.61 610.392 527 607.972 527 604.412L527 604.412Z" id="Forme-26" fill="#000000" stroke="none" />
    <path d="M505.252 462.444L475.821 430.604C474.432 429.094 472.252 428.594 470.332 429.344L413.182 451.654C410.071 452.874 409.002 456.734 411.052 459.374L451.672 511.814C453.071 513.624 455.521 514.244 457.621 513.334L505.252 492.604" id="Forme-27" fill="none" stroke="#000000" stroke-width="5" stroke-linecap="round" />
    <path d="M458 255C477.461 298.47 514.221 411.49 505.62 515.82" id="Forme-28" fill="none" stroke="#000000" stroke-width="5" stroke-linecap="round" />
    <g id="symfony-seeklogo.com" clip-path="url(#clip_3)" transform="translate(925.3008 160)">
      <path d="M0 0L151.409 0L151.409 152L0 152L0 0Z" id="symfony-seeklogo.com" fill="none" fill-rule="evenodd" stroke="none" />
      <g id="Group" transform="translate(0 0.48912838)">
        <path d="M0 75.7043C0 33.894 33.894 0 75.7043 0C117.515 0 151.409 33.894 151.409 75.7043C151.409 117.515 117.515 151.409 75.7043 151.409C33.894 151.409 0 117.515 0 75.7043Z" id="Cercle" fill="#1A171B" fill-rule="evenodd" stroke="none" />
        <path d="M108.651 27.9736C100.971 28.2415 94.2673 32.4739 89.2778 38.3299C83.7526 44.7497 80.0769 52.3643 77.4284 60.1374C72.6905 56.2544 69.0357 51.2276 61.435 49.0357C55.5603 47.3492 49.3898 48.0457 43.7155 52.2735C41.0274 54.2814 39.1756 57.3166 38.2951 60.17C36.0146 67.5844 40.692 74.1835 42.8164 76.5524L47.4611 81.5303C48.4185 82.5063 50.7246 85.0523 49.5972 88.7024C48.3789 92.6716 43.5944 95.2409 38.6864 93.7268C36.4945 93.0583 33.3452 91.4254 34.051 89.1263C34.3422 88.1853 35.0154 87.4818 35.3764 86.6689C35.7072 85.9701 35.8656 85.446 35.9657 85.1385C36.8625 82.2105 35.6373 78.402 32.502 77.4353C29.5763 76.5385 26.5831 77.2489 25.423 81.0155C24.1069 85.2945 26.1545 93.0606 37.1234 96.4429C49.9745 100.391 60.8456 93.3937 62.3877 84.2673C63.359 78.551 60.7781 74.3046 56.0495 68.8423L52.1967 64.5818C49.8627 62.2502 49.0614 58.2763 51.477 55.2225C53.5151 52.6462 56.4175 51.5467 61.1718 52.8395C68.1109 54.724 71.2043 59.5388 76.3662 63.4218C74.2348 70.4122 72.8419 77.4283 71.5817 83.7199L70.813 88.4112C67.1233 107.764 64.3071 118.39 56.9882 124.491C55.5137 125.539 53.4057 127.109 50.2284 127.218C48.5629 127.27 48.0248 126.124 48.0015 125.625C47.9619 124.456 48.9473 123.92 49.6018 123.394C50.5801 122.86 52.0593 121.975 51.9591 119.14C51.852 115.791 49.0777 112.886 45.0665 113.019C42.0617 113.121 37.4821 115.949 37.6545 121.125C37.8339 126.471 42.8164 130.477 50.3286 130.223C54.3444 130.086 63.3124 128.451 72.15 117.945C82.4365 105.902 85.3133 92.0963 87.4772 81.9915L89.8928 68.6512C91.2345 68.812 92.6694 68.9191 94.2301 68.9564C107.042 69.2266 113.45 62.5902 113.545 57.7638C113.608 54.8428 111.628 51.9684 108.856 52.0336C106.872 52.0895 104.379 53.4102 103.78 56.1542C103.196 58.847 107.857 61.2765 104.214 63.6361C101.626 65.3109 96.9857 66.4919 90.4518 65.5322L91.6398 58.9658C94.0647 46.513 97.0556 31.1951 108.402 30.8224C109.229 30.7805 112.255 30.8597 112.325 32.8606C112.346 33.5291 112.18 33.6992 111.397 35.2296C110.601 36.4222 110.3 37.4378 110.338 38.6048C110.447 41.7844 112.865 43.8738 116.361 43.748C121.043 43.5966 122.39 39.0381 122.313 36.6971C122.124 31.1974 116.326 27.722 108.651 27.9736L108.651 27.9736L108.651 27.9736Z" id="Forme" fill="#FFFFFF" stroke="none" />
      </g>
    </g>
    <path d="M519.328 518.02C516.258 455.84 533.458 309.37 626.838 221" id="Forme-29" fill="none" stroke="#000000" stroke-width="5" stroke-linecap="round" />
    <g id="Groupes" transform="translate(630.54004 61.280273)">
      <g id="https___mariadb.com_wp-content_uploads_2019_11_vertical-logo_black" clip-path="url(#clip_4)">
        <path d="M0 0L159.06 0L159.06 129.72L0 129.72L0 0Z" id="https___mariadb.com_wp-content_uploads_2019_11_vertical-logo_black" fill="none" fill-rule="evenodd" stroke="none" />
        <path d="M28.8318 107.022L34.6218 129.382L30.2536 129.382L26.3834 113.279L19.1356 129.382L15.4502 129.382L8.23839 113.387L4.27575 129.397L0 129.397L5.72838 107.022L9.52163 107.022L17.3288 124.336L25.0847 107.022L28.8318 107.022Z" id="Forme" fill="#231F20" stroke="none" />
        <path d="M51.099 115.666L51.099 113.063L55.3082 113.063L55.3082 129.382L51.099 129.382L51.099 126.733C49.98 128.627 47.6907 129.71 44.9034 129.71C39.0825 129.71 35.8281 125.604 35.8281 120.881C35.8281 116.328 38.908 112.668 44.2823 112.668C47.3416 112.694 49.8825 113.746 51.099 115.666L51.099 115.666ZM40.3196 121.118C40.3196 124.12 42.2085 126.687 45.8633 126.687C49.3949 126.687 51.3146 124.182 51.3146 121.21C51.3146 118.238 49.3333 115.697 45.6683 115.697C42.1418 115.697 40.3196 118.233 40.3196 121.118L40.3196 121.118Z" id="Forme" fill="#231F20" fill-rule="evenodd" stroke="none" />
        <path d="M64.8032 129.381L60.5942 129.381L60.5942 113.064L64.8032 113.064L64.8032 116.718C65.7821 114.318 68.0991 112.735 70.6907 112.694C71.5853 112.681 72.4751 112.827 73.3188 113.125L72.4205 116.205C71.6933 116.012 70.9452 115.908 70.1928 115.897C67.1592 115.897 64.8032 118.186 64.8032 121.543L64.8032 129.381Z" id="Forme" fill="#231F20" stroke="none" />
        <path d="M75.4233 108.767C75.4081 108.168 75.644 107.59 76.074 107.172C76.5039 106.755 77.0888 106.537 77.687 106.57C78.2947 106.55 78.8838 106.781 79.3166 107.208C79.7495 107.635 79.988 108.22 79.9764 108.828C79.9897 109.429 79.7486 110.008 79.3126 110.421C78.8765 110.835 78.2862 111.045 77.687 111C77.0845 111.026 76.4983 110.8 76.0689 110.376C75.6395 109.953 75.4057 109.37 75.4233 108.767L75.4233 108.767ZM75.6089 113.074L79.8437 113.074L79.8437 124.988C79.8437 125.727 79.9977 126.256 80.6188 126.256C80.8897 126.249 81.1593 126.218 81.4247 126.163L82.0715 129.243C81.1836 129.591 80.2375 129.765 79.2842 129.757C77.5184 129.757 75.6294 129.243 75.6294 125.234L75.6089 113.074Z" id="Forme" fill="#231F20" fill-rule="evenodd" stroke="none" />
        <path d="M98.6505 115.666L98.6505 113.063L102.86 113.063L102.86 129.382L98.6505 129.382L98.6505 126.733C97.5316 128.627 95.2422 129.71 92.4549 129.71C86.634 129.71 83.3796 125.604 83.3796 120.881C83.3796 116.328 86.4595 112.668 91.8338 112.668C94.9034 112.694 97.4391 113.746 98.6505 115.666L98.6505 115.666ZM87.8711 121.118C87.8711 124.12 89.7601 126.687 93.4148 126.687C96.9464 126.687 98.8661 124.182 98.8661 121.21C98.8661 118.238 96.8848 115.697 93.2197 115.697C89.6985 115.697 87.8711 118.233 87.8711 121.118L87.8711 121.118Z" id="Forme" fill="#231F20" fill-rule="evenodd" stroke="none" />
        <path d="M109.327 107.022L119.424 107.022C127.909 107.022 132.154 111.704 132.092 118.202C132.154 124.957 127.472 129.382 120.168 129.382L109.327 129.382L109.327 107.022ZM112.114 109.008L112.114 127.431L119.814 127.431C126.564 127.431 129.135 122.878 129.135 118.14C129.135 112.786 125.912 109.008 119.814 109.008L112.114 109.008Z" id="Forme" fill="#231F20" fill-rule="evenodd" stroke="none" />
        <path d="M149.303 129.382L136.47 129.382L136.47 107.022L148.019 107.022C152.449 107.022 156.658 107.859 156.597 112.818C156.597 116.313 154.43 117.273 152.136 117.648C155.39 117.925 157.341 119.999 157.341 123.346C157.387 128.361 152.988 129.382 149.303 129.382L149.303 129.382ZM148.342 116.78C152.772 116.78 153.763 115.075 153.763 112.909C153.763 109.655 151.781 108.911 148.342 108.911L139.149 108.911L139.149 116.78L148.342 116.78ZM148.466 118.669L139.149 118.669L139.149 127.493L148.871 127.493C151.597 127.493 154.476 126.594 154.476 123.161C154.476 119.193 151.16 118.669 148.466 118.669L148.466 118.669Z" id="Forme" fill="#231F20" fill-rule="evenodd" stroke="none" />
        <path d="M158.377 0.487378C157.972 0.142 157.452 -0.040858 156.92 -0.0259174C155.462 -0.0259174 153.583 0.95961 152.577 1.51397L152.172 1.71929C150.476 2.54111 148.629 3.00584 146.746 3.08465C144.816 3.14625 143.153 3.25917 140.987 3.47989C128.155 4.80419 122.431 14.6389 116.919 24.1503C113.921 29.3243 110.821 34.6729 106.571 38.8151C105.688 39.6666 104.752 40.4604 103.768 41.1917C99.369 44.4717 93.846 46.7866 89.5292 48.4394C85.3869 50.0204 80.875 51.4422 76.5069 52.8178C72.5134 54.0754 68.7356 55.2611 65.2657 56.5546C63.7001 57.1347 62.3707 57.5812 61.1953 57.9713C58.0385 58.9979 55.7543 59.7833 52.4282 62.0777C51.1295 62.9657 49.8258 63.9255 48.9378 64.6442C46.2936 66.7527 43.9547 69.2177 41.9878 71.9689C40.2942 74.5094 38.338 76.8647 36.1516 78.9959C35.4535 79.6837 34.201 80.0225 32.3378 80.0225C30.146 80.0225 27.4974 79.5708 24.6845 79.0934C21.8717 78.6161 18.8022 78.0668 16.2357 78.0668C14.1466 78.0668 12.5554 78.4056 11.3594 79.0934C11.3594 79.0934 9.35753 80.2637 8.50546 81.778L9.337 82.1527C10.6272 82.8531 11.8226 83.7156 12.8941 84.7191C14.0037 85.7533 15.2446 86.6369 16.5847 87.3472C17.0162 87.5113 17.4081 87.765 17.7345 88.0915C17.3803 88.6048 16.8671 89.2669 16.3281 89.9753C13.3664 93.8507 11.6417 96.2991 12.6324 97.6337C13.1066 97.8818 13.6373 98.0021 14.1722 97.9827C20.6346 97.9827 24.0994 96.3042 28.4932 94.1792C29.761 93.5632 31.0597 92.9267 32.5996 92.28C35.166 91.1661 37.9276 89.3901 40.8533 87.5115C44.7287 85.022 48.7376 82.4452 52.6181 81.1979C55.8156 80.2229 59.1463 79.7552 62.4887 79.812C66.5951 79.812 70.9171 80.3613 75.085 80.8951C78.1956 81.2955 81.4088 81.7061 84.5656 81.9217C85.7924 81.9935 86.9267 82.0295 88.0355 82.0295C89.5118 82.0335 90.9872 81.9564 92.455 81.7985L92.804 81.6753C95.0215 80.3151 96.0583 77.3944 97.0592 74.5713C97.706 72.7542 98.2501 71.122 99.1124 70.0851C99.1639 70.0332 99.2207 69.9867 99.2818 69.9465C99.365 69.9002 99.4692 69.9172 99.5333 69.9876C99.5423 70.0142 99.5423 70.0431 99.5333 70.0697C99.02 81.1107 94.5698 88.1172 90.0784 94.3486L87.0294 97.5464C87.0294 97.5464 91.2281 97.5464 93.6201 96.6225C102.346 94.0149 108.937 88.266 113.731 79.0986C114.913 76.7457 115.968 74.3314 116.893 71.8662C116.975 71.6609 117.735 71.2811 117.658 72.3436C117.658 72.6567 117.617 73.0057 117.591 73.3702L117.591 73.3702C117.591 73.5858 117.56 73.8065 117.55 74.0272C117.422 75.5671 117.037 78.8214 117.037 78.8214L119.731 77.379C126.23 73.2726 131.24 64.9881 135.038 52.0992C136.624 46.7301 137.779 41.397 138.8 36.7004C140.022 31.0541 141.074 26.2137 142.281 24.3351C144.175 21.3888 147.064 19.3972 149.862 17.462C150.247 17.2003 150.627 16.9487 151.001 16.6716C154.523 14.2026 158.018 11.3538 158.783 6.04122L158.783 5.92316C159.368 1.96054 158.891 0.975009 158.377 0.487378L158.377 0.487378Z" id="Forme" fill="#231F20" stroke="none" />
      </g>
    </g>
    <path d="M532 513.662C535.75 422.232 602.55 243.742 839.69 261.192" id="Forme-30" fill="none" stroke="#000000" stroke-width="5" stroke-linecap="round" />
    <g id="Groupes-3" transform="translate(1001 672)">
      <path d="M153.59 68.3999C153.59 58.23 140.84 48.5796 121.31 42.6099C125.82 22.6899 123.81 6.84961 114.99 1.77979C112.95 0.589844 110.57 0.0297852 107.97 0.0297852L107.97 7.00977C109.41 7.00977 110.57 7.29004 111.54 7.81982C115.8 10.27 117.65 19.5596 116.21 31.52C115.86 34.4697 115.3 37.5596 114.61 40.73C108.47 39.2197 101.77 38.0698 94.7305 37.3096C90.5 31.52 86.1201 26.2598 81.71 21.6597C91.9102 12.1797 101.49 6.97998 108 6.97998L108 0C99.3896 0 88.1201 6.12988 76.7305 16.7798C65.3301 6.19971 54.0596 0.119629 45.4502 0.119629L45.4502 7.09961C51.9297 7.09961 61.54 12.27 71.75 21.6899C67.3701 26.29 62.9805 31.52 58.8203 37.3096C51.75 38.0698 45.0498 39.2197 38.9102 40.7598C38.1904 37.6299 37.6602 34.5898 37.2803 31.6797C35.8096 19.7197 37.6299 10.4199 41.8496 7.94971C42.79 7.38965 44.0098 7.12988 45.4502 7.12988L45.4502 0.149902C42.8203 0.149902 40.4404 0.719727 38.3799 1.90967C29.5801 6.97998 27.6104 22.79 32.1504 42.6396C12.6797 48.6499 0 58.2598 0 68.3999C0 78.5796 12.7402 88.2197 32.2695 94.1997C27.7598 114.11 29.7695 129.95 38.5996 135.02C40.6299 136.21 43.0098 136.78 45.6396 136.78C54.25 136.78 65.5195 130.64 76.9199 120C88.3096 130.58 99.5801 136.65 108.19 136.65C110.82 136.65 113.2 136.09 115.27 134.9C124.06 129.83 126.04 114.02 121.5 94.1699C140.91 88.1899 153.59 78.5498 153.59 68.3999L153.59 68.3999ZM112.83 47.52C111.67 51.5596 110.23 55.7197 108.6 59.8896C107.32 57.3799 105.97 54.8799 104.5 52.3696C103.06 49.8696 101.52 47.4297 99.9902 45.0498C104.43 45.6997 108.72 46.52 112.83 47.52L112.83 47.52ZM98.4902 80.8599C96.04 85.0898 93.54 89.0996 90.9404 92.8198C86.2803 93.23 81.5498 93.4497 76.79 93.4497C72.0596 93.4497 67.3398 93.23 62.7002 92.8496C60.0996 89.1299 57.5703 85.1499 55.1299 80.96C52.75 76.8496 50.5898 72.6899 48.6201 68.5C50.5596 64.2998 52.75 60.1099 55.0996 56C57.54 51.7798 60.04 47.77 62.6396 44.0498C67.3096 43.6396 72.0303 43.4199 76.79 43.4199C81.5195 43.4199 86.25 43.6396 90.8799 44.0098C93.4805 47.7397 96.0098 51.7197 98.46 55.9097C100.83 60.0098 102.99 64.1797 104.97 68.3696C102.99 72.5698 100.83 76.7598 98.4902 80.8599L98.4902 80.8599ZM108.6 76.79C110.29 80.9897 111.73 85.1797 112.92 89.25C108.82 90.25 104.5 91.0996 100.02 91.7598C101.55 89.3496 103.09 86.8696 104.53 84.3398C105.97 81.8296 107.32 79.2998 108.6 76.79L108.6 76.79ZM76.8496 110.2C73.9404 107.19 71.0303 103.84 68.1504 100.18C70.9697 100.3 73.8496 100.4 76.7598 100.4C79.7002 100.4 82.6104 100.33 85.46 100.18C82.6504 103.84 79.7305 107.19 76.8496 110.2L76.8496 110.2ZM53.5596 91.7598C49.1201 91.0996 44.8301 90.29 40.7305 89.2798C41.8799 85.2397 43.3203 81.0796 44.9502 76.9199C46.2402 79.4199 47.5801 81.9297 49.0498 84.4297C50.5195 86.9399 52.0303 89.3799 53.5596 91.7598L53.5596 91.7598ZM76.7002 26.6099C79.6104 29.6099 82.5195 32.96 85.4004 36.6299C82.5801 36.5 79.7002 36.4097 76.79 36.4097C73.8496 36.4097 70.9404 36.4697 68.0898 36.6299C70.9102 32.96 73.8203 29.6099 76.7002 26.6099L76.7002 26.6099ZM53.5303 45.0498C52 47.46 50.46 49.9297 49.0195 52.4697C47.5801 54.9697 46.2402 57.48 44.9502 59.98C43.2598 55.79 41.8203 51.5898 40.6299 47.52C44.7305 46.5498 49.0498 45.6997 53.5303 45.0498L53.5303 45.0498ZM25.2002 84.2397C14.1201 79.52 6.9502 73.3198 6.9502 68.3999C6.9502 63.4897 14.1201 57.2598 25.2002 52.5596C27.8896 51.3999 30.8301 50.3696 33.8701 49.3999C35.6504 55.5298 38 61.9199 40.9102 68.46C38.0303 74.98 35.7197 81.3296 33.96 87.4399C30.8604 86.4697 27.9199 85.3999 25.2002 84.2397L25.2002 84.2397ZM42.04 128.98C37.7803 126.54 35.9404 117.24 37.3799 105.28C37.7197 102.34 38.2803 99.2397 38.9697 96.0796C45.1104 97.5796 51.8096 98.7397 58.8496 99.4897C63.0801 105.28 67.46 110.54 71.8799 115.14C61.6699 124.63 52.0898 129.83 45.5801 129.83C44.1699 129.79 42.9805 129.51 42.04 128.98L42.04 128.98ZM116.3 105.12C117.77 117.08 115.96 126.38 111.73 128.85C110.79 129.42 109.57 129.67 108.13 129.67C101.65 129.67 92.04 124.5 81.8301 115.08C86.21 110.48 90.5996 105.25 94.7598 99.46C101.84 98.71 108.54 97.5498 114.67 96.0098C115.39 99.1797 115.96 102.21 116.3 105.12L116.3 105.12ZM128.35 84.2397C125.66 85.3999 122.72 86.4297 119.68 87.3999C117.9 81.27 115.55 74.8799 112.64 68.3398C115.52 61.8296 117.83 55.4697 119.59 49.3696C122.69 50.3398 125.63 51.3999 128.38 52.5596C139.47 57.29 146.64 63.4897 146.64 68.3999C146.6 73.3198 139.44 79.5498 128.35 84.2397L128.35 84.2397Z" id="Forme-35" fill="#000000" fill-opacity="0.4" fill-rule="evenodd" stroke="none" />
      <path d="M77.3096 82.6201C85.21 82.6201 91.6201 76.21 91.6201 68.3101C91.6201 60.4102 85.21 54 77.3096 54C69.4102 54 63 60.4102 63 68.3101C63 76.21 69.4102 82.6201 77.3096 82.6201L77.3096 82.6201Z" id="Forme-36" fill="#000000" stroke="none" />
    </g>
    <path d="M547 503.625C587.949 391.625 762.64 233.335 1133.71 496.206" id="Forme-31" fill="none" stroke="#000000" stroke-width="5" stroke-linecap="round" />
    <path d="M565 496.876C632.75 422.936 815.55 345.586 1004.78 627.756" id="Forme-32" fill="none" stroke="#000000" stroke-width="5" stroke-linecap="round" />
    <path d="M1178 445L1324.63 445L1324.63 591.59L1178 591.59L1178 445L1178 445Z" id="Forme-37" fill="none" stroke="#000000" stroke-opacity="0.4" stroke-width="7" />
    <path d="M1315.66 558.28C1314.56 551.27 1309.96 545.39 1296.43 539.9C1291.73 537.74 1286.48 536.19 1284.92 532.63C1284.37 530.56 1284.29 529.39 1284.64 528.13C1285.65 524.06 1290.51 522.79 1294.37 523.959C1296.85 524.79 1299.2 526.7 1300.62 529.75C1307.26 525.459 1307.26 525.49 1311.86 522.54C1310.16 519.91 1309.26 518.7 1308.16 517.58C1304.16 513.12 1298.73 510.83 1290.05 511.01C1288.54 511.2 1287.02 511.4 1285.52 511.59C1281.18 512.69 1277.05 514.959 1274.63 518.02C1267.36 526.26 1269.43 540.7 1278.28 546.65C1287 553.19 1299.8 554.68 1301.43 560.79C1303.03 568.28 1295.93 570.709 1288.88 569.84C1283.68 568.76 1280.79 566.12 1277.67 561.32C1271.91 564.65 1271.91 564.65 1266 568.05C1267.4 571.12 1268.88 572.5 1271.23 575.16C1282.35 586.44 1310.16 585.89 1315.16 568.81C1315.36 568.22 1316.76 564.31 1315.66 558.28L1315.66 558.28ZM1258.13 511.91L1243.77 511.91C1243.77 524.32 1243.71 536.64 1243.71 549.05C1243.71 556.95 1244.12 564.19 1242.83 566.41C1240.73 570.78 1235.28 570.24 1232.8 569.39C1230.28 568.15 1228.99 566.38 1227.5 563.89C1227.09 563.17 1226.79 562.62 1226.68 562.57C1222.79 564.95 1218.9 567.35 1215 569.729C1216.95 573.709 1219.81 577.17 1223.47 579.42C1228.95 582.709 1236.3 583.709 1244 581.95C1249.01 580.49 1253.33 577.47 1255.59 572.87C1258.86 566.84 1258.16 559.54 1258.13 551.459C1258.2 538.29 1258.13 525.13 1258.13 511.91L1258.13 511.91Z" id="Forme-38" fill="#000000" fill-rule="evenodd" stroke="none" />
  </g>
</svg>