<svg width="1186" height="776" viewBox="0 0 1186 776" fill="none" xmlns="http://www.w3.org/2000/svg">
<path d="M823.283 724.662C752.077 700.033 794.504 498.066 827.499 424.949C877.22 471.478 966.172 451.407 973.014 432.704C975.071 443.736 981.657 493.15 1010.51 536.866C1039.36 580.582 1076.79 603.318 1083.4 622.298C1099.52 668.477 1064.22 692.336 1046.57 697.724C984.573 711.885 932.242 642.053 913.826 605.365C887.431 713.732 842.466 730.049 823.283 724.662Z" fill="black"/>
<path d="M809.914 713.699C810.441 721.694 806.816 748.513 785.902 733.814C780.743 728.657 768.551 720.198 761.115 727.625C753.679 735.051 768.35 748.771 776.607 754.702C785.127 761.407 806.041 772.805 821.533 764.759C837.025 756.713 836.777 735.619 834.701 726.077" stroke="black" stroke-width="5" stroke-linecap="round"/>
<path d="M1063.79 685.675C1069.2 688.254 1080.01 695.421 1080.01 703.465C1073.83 712.232 1063.94 733.786 1073.83 749.875C1083.72 765.963 1101.64 729.249 1109.36 708.88C1113.22 697.278 1113.68 671.598 1084.64 661.697" stroke="black" stroke-width="5" stroke-linecap="round"/>
<path d="M832.973 759.314C836.284 765.66 849.302 774.999 874.939 761.599" stroke="black" stroke-width="5" stroke-linecap="round"/>
<path d="M850.307 748.367C857.668 755.017 877.365 765.957 902.309 756.603" stroke="black" stroke-width="5" stroke-linecap="round"/>
<path d="M885.887 743.805C895.12 754.479 920.819 771.709 949.75 755.241" stroke="black" stroke-width="5" stroke-linecap="round"/>
<path d="M926.029 738.332C928.33 747.787 959.468 767.958 1065.61 773" stroke="black" stroke-width="5" stroke-linecap="round"/>
<path d="M918.46 351.507C960.7 339.37 993.935 301.055 1005.27 283.414C1017.94 264.449 1007.77 222.049 865.817 204.167" stroke="black" stroke-width="5" stroke-linecap="round"/>
<path d="M918.731 351.507C916.149 348.039 909.363 341.769 901.397 341.472" stroke="black" stroke-width="5" stroke-linecap="round"/>
<path d="M901.397 341.472C901.632 331.566 909.989 306.019 941.539 283.083" stroke="black" stroke-width="5" stroke-linecap="round"/>
<path d="M903.222 277.934C899.947 272.633 889.888 261.378 875.852 258.775" stroke="black" stroke-width="5" stroke-linecap="round"/>
<path d="M872.561 356.991C865.371 356.64 850.356 355.585 847.81 354.179C844.628 352.421 843.921 352.421 843.921 348.905C843.921 345.39 872.561 351.367 872.561 340.117C869.967 337.539 865.772 331.75 869.732 329.218C873.692 326.688 881.99 334.024 885.643 338.008C889.414 341.992 897.877 348.273 901.555 341.523" stroke="black" stroke-width="5" stroke-linecap="round"/>
<path d="M917.819 351.366C914.637 360.624 903.181 377.24 882.815 369.646C862.448 362.053 861.6 358.045 863.722 356.991" stroke="black" stroke-width="5" stroke-linecap="round"/>
<path d="M776.171 342.533C771.222 341.18 760.405 334.888 756.728 320.537C753.051 306.187 758.024 306.117 760.97 307.875" stroke="black" stroke-width="5" stroke-linecap="round"/>
<path d="M794.555 332.145C793.023 324.172 787.626 308.79 778.293 311.041" stroke="black" stroke-width="5" stroke-linecap="round"/>
<path d="M790.665 319.13C797.17 313.784 801.153 326.048 802.332 332.848C809.685 335.099 812.466 345.745 812.937 350.786C795.921 352.531 783.829 347.962 776.171 342.533C771.483 339.21 768.457 335.564 766.98 332.848C763.327 323.117 758.001 302.811 765.92 299.434C773.839 296.058 776.054 303.655 776.171 307.875C775.323 317.443 780.296 328.041 782.888 332.145" stroke="black" stroke-width="5" stroke-linecap="round"/>
<path d="M957.961 360.955C972.419 380.47 991.261 433.616 957.961 444.889C910.672 458.834 812.902 461.57 800.129 360.955" stroke="black" stroke-width="5" stroke-linecap="round"/>
<path d="M754.057 328.243L643.358 321.56C637.767 321.222 632.989 325.542 632.764 331.139L631.052 373.626C630.826 379.252 626.002 383.581 620.385 383.201L593.17 381.359C587.762 380.993 583.631 376.386 583.854 370.97L584.87 346.342C585.095 340.864 580.869 336.226 575.395 335.943L568.753 335.599C563.258 335.315 558.566 339.523 558.252 345.016L557.551 357.297C557.242 362.707 552.68 366.886 547.264 366.722L537.216 366.418C531.568 366.246 527.183 361.433 527.539 355.793L529.445 325.569C529.795 320.011 525.538 315.238 519.977 314.953L504.535 314.161C499.001 313.877 494.753 309.147 495.063 303.615L497.132 266.668C497.442 261.131 502.198 256.904 507.733 257.246L630.639 264.837L935.153 285.364" stroke="black" stroke-width="5" stroke-linecap="round"/>
<path d="M805.771 213.355C799.737 209.641 754.341 213.22 745.515 156.117C730.405 156.294 722.189 143.917 733.718 138.62C746.009 132.282 745.087 120.646 742.86 113.79C739.32 104.799 739.105 95.3592 739.869 93.3848" stroke="black" stroke-width="5" stroke-linecap="round"/>
<path d="M758.836 135.496C757.121 135.517 755.707 133.448 755.677 130.876C755.646 128.304 757.012 126.203 758.727 126.183C760.441 126.163 761.855 128.231 761.886 130.803C761.916 133.375 760.55 135.476 758.836 135.496Z" fill="black"/>
<path d="M767.264 116.649C764.743 113.953 758.224 110.012 752.318 115.802" stroke="black" stroke-width="5" stroke-linecap="round"/>
<path d="M784.389 169.122C779.755 176.252 774.669 178.276 764.787 173.675" stroke="black" stroke-width="5" stroke-linecap="round"/>
<path d="M822.319 119.147C823.393 121.505 824.292 126.857 819.302 129.404" stroke="black" stroke-width="5" stroke-linecap="round"/>
<path d="M875.502 94.9396C881.381 127.104 862.987 151.316 849.652 169.929C835.409 162.235 812.067 143.937 821.019 141.962C830.429 139.886 840.353 114.22 831.215 106.368C820.495 97.1564 810.83 111.094 808.988 121.663L800.353 106.73C802.796 96.2849 803.753 77.9633 788.049 88.2345C772.345 98.5056 749.31 95.8151 739.755 93.1859C720.916 79.7013 691.646 48.2476 725.282 30.3105C753.258 15.3918 789.663 34.2531 811.885 51.2009C826.931 47.2288 867.486 51.0849 875.502 94.9396Z" fill="black"/>
<path d="M848.604 167.774C841.804 175.962 838.426 182.76 838.846 196.844" stroke="black" stroke-width="5" stroke-linecap="round"/>
<path d="M856.171 215.699C858.552 207.393 859.947 191.552 846.48 194.631C829.647 198.479 795.336 215.125 797.85 224.352" stroke="black" stroke-width="5" stroke-linecap="round"/>
<path d="M797.848 237.335C785.532 248.739 782.795 256.038 780.97 269.722" stroke="black" stroke-width="5" stroke-linecap="round"/>
<path d="M291.654 467.896C302.412 486.423 341.622 513.553 413.265 476.753C414.776 475.977 416.581 477.267 416.269 478.936C408.903 518.244 408.703 582.402 500.12 606.569C539.806 617.061 576.299 596.534 547.105 571.901C507.376 538.381 436.714 649.449 477.768 717.417" stroke="black" stroke-width="5" stroke-linecap="round"/>
<path d="M113.288 181.815C111.699 133.943 122.825 33.6387 200.312 36.8303C222.962 38.198 257.215 65.8272 259.122 138.046" stroke="black" stroke-width="5" stroke-linecap="round"/>
<path d="M75.8473 190.938C74.2605 136.827 90.4289 11.4812 175.417 3.52407C263.086 -4.68402 284.244 85.4513 286.492 138.955" stroke="black" stroke-width="5" stroke-linecap="round"/>
<path d="M132.309 166.761L239.963 138.479" stroke="black" stroke-width="5" stroke-linecap="round"/>
<path d="M63.1175 187.289C50.6491 189.57 22.8841 199.149 11.5713 219.22" stroke="black" stroke-width="5" stroke-linecap="round"/>
<path d="M9.74685 217.852C41.8606 198.876 52.1698 234.882 55.8191 250.696V467.829C55.8191 515.269 69.504 512.988 83.0908 524.989C44.7732 511.761 24.7999 493.374 17.8596 484.391C-1.00102 459.981 0.98179 280.943 0.0694682 261.328C-0.66039 245.636 7.31399 223.174 9.74685 217.852Z" fill="black"/>
<path d="M284.22 162.228L93.5008 217.845C72.1664 224.066 57.4985 243.622 57.4985 265.845V476.729C57.4985 512.416 93.8111 536.614 126.748 522.875L317.467 443.318C336.09 435.55 348.218 417.35 348.218 397.172V210.229C348.218 176.896 316.22 152.897 284.22 162.228Z" stroke="black" stroke-width="5" stroke-linecap="round"/>
<path d="M213.077 300.988C234.731 265.596 212.046 248.146 197.997 243.845C245.326 236.103 237.051 279.943 226.998 302.831L256.385 379.789L233.277 368.928C230.53 367.637 228.518 365.168 227.808 362.217L213.077 300.988Z" fill="black"/>
<path d="M178.837 401.685L199.594 308.71C172.687 302.696 172.254 246.315 199.594 242.563C243.413 236.55 238.416 282.806 226.885 302.696L254.56 379.482L178.837 401.685Z" stroke="black" stroke-width="5"/>
<path d="M12.4836 622.534C-10.8718 613.411 7.0097 602.007 18.8699 597.445L222.774 534.039C238.892 529.477 277.057 523.638 300.778 536.776C330.428 553.198 297.584 561.408 291.654 565.97C285.724 570.532 160.736 622.534 117.857 636.675C74.9779 650.816 41.6779 633.938 12.4836 622.534Z" fill="black"/>
<path d="M1178.13 324.14C1176.68 352.967 1167.4 378.553 1153.71 396.621C1140.02 414.7 1122.1 425.047 1103.24 424.095C1084.38 423.143 1067.59 411.044 1055.78 391.676C1043.99 372.323 1037.34 345.933 1038.79 317.105C1040.25 288.277 1049.52 262.692 1063.21 244.624C1076.91 226.544 1094.83 216.198 1113.69 217.15C1132.54 218.102 1149.33 230.201 1161.14 249.568C1172.94 268.922 1179.59 295.312 1178.13 324.14Z" stroke="black" stroke-width="5"/>
<path d="M1148.73 322.434C1147.88 339.27 1142.46 354.167 1134.52 364.647C1126.57 375.139 1116.29 380.998 1105.6 380.458C1094.91 379.919 1085.26 373.053 1078.41 361.814C1071.57 350.588 1067.68 335.221 1068.53 318.385C1069.38 301.548 1074.8 286.651 1082.74 276.172C1090.68 265.68 1100.97 259.82 1111.66 260.36C1122.35 260.9 1132 267.765 1138.85 279.004C1145.69 290.23 1149.58 305.597 1148.73 322.434Z" stroke="black" stroke-width="5"/>
<path d="M1001.3 294.487L1042.35 296.768" stroke="black" stroke-width="5" stroke-linecap="round"/>
<path d="M812.445 337.366L869.465 341.472" stroke="black" stroke-width="5" stroke-linecap="round"/>
<path d="M938.802 346.033L1041.89 350.139" stroke="black" stroke-width="5" stroke-linecap="round"/>
</svg>
