<?xml version="1.0" encoding="utf-8"?>
<svg width="884.645px" height="773.666px" viewBox="0 0 884.645 773.666" version="1.1" xmlns:xlink="http://www.w3.org/1999/xlink" xmlns="http://www.w3.org/2000/svg">
  <g id="Group-9">
    <path d="M801.19 91.0361C793.91 93.126 786.03 105.276 783 111.086C787.55 110.506 797.85 107.426 802.7 99.7559C807.56 92.0762 803.72 90.7461 801.19 91.0361L801.19 91.0361Z" id="Shape" fill="#000000" stroke="none" />
    <path d="M797.95 72.0532C790.63 72.8032 785.36 91.2432 783 99.7432C788.24 95.373 798.58 86.623 801.1 83.7134C805.82 78.2432 805.03 71.3232 797.95 72.0532L797.95 72.0532Z" id="Shape-2" fill="#000000" stroke="none" />
    <path d="M773.32 64.1523C768.19 72.0127 779.32 83.8125 784.45 91.6626C784.45 86.7227 784.45 76.3726 784.45 72.0127C784.45 65.0327 777.03 58.4824 773.32 64.1523L773.32 64.1523Z" id="Shape-3" fill="#000000" stroke="none" />
    <path d="M784.078 103.305C778.468 95.6548 766.478 82.4048 763.418 90.5645C759.588 100.754 783.308 103.305 784.078 103.305L784.078 103.305Z" id="Shape-4" fill="#000000" stroke="none" />
    <g id="Group" transform="translate(783 86)">
      <path d="M1 28.7002L0 0" id="Line" fill="none" fill-rule="evenodd" stroke="#000000" stroke-width="3" stroke-linecap="round" />
    </g>
    <path d="M775.401 136.24C777.312 131.61 780.141 119.72 780.741 114L788.731 114C789.092 121.04 792.731 131.14 794.511 136.24C799.851 148.29 795.251 156.01 791.851 158.01L778.962 158.01C770.511 155.23 772.741 142.73 775.401 136.24L775.401 136.24Z" id="Shape-5" fill="none" stroke="#000000" stroke-width="3" />
    <path d="M721 187.348C732.77 189.778 727.25 206.128 735.87 210.488C746.17 215.678 749.72 186.438 748.38 174.028C747.99 168.588 741.71 166.168 740.87 174.028C739.97 182.378 750.24 214.758 762.01 202.268L769.87 193.088C772.05 190.378 776.36 186.608 779.99 193.088C783.63 199.578 789.43 197.438 791.87 195.548L799.55 189.918" id="Shape-6" fill="none" stroke="#000000" stroke-width="5" stroke-linecap="round" />
    <g id="Group-2" transform="translate(497 94)">
      <path d="M0 1L145.14 1" id="Line" fill="none" fill-rule="evenodd" stroke="#000000" stroke-width="5" stroke-linecap="round" />
    </g>
    <g id="Group-3" transform="translate(497 144)">
      <path d="M0 1L114.96 1" id="Line" fill="none" fill-rule="evenodd" stroke="#000000" stroke-width="5" stroke-linecap="round" />
    </g>
    <g id="Group-4" transform="translate(497 167)">
      <path d="M0 1L97.24 1" id="Line" fill="none" fill-rule="evenodd" stroke="#000000" stroke-width="5" stroke-linecap="round" />
    </g>
    <g id="Group-5" transform="translate(407 189)">
      <path d="M0 1L236.16 1" id="Line" fill="none" fill-rule="evenodd" stroke="#000000" stroke-width="5" stroke-linecap="round" />
    </g>
    <g id="Group-6" transform="translate(406 207)">
      <path d="M0 1L108.249 1" id="Line" fill="none" fill-rule="evenodd" stroke="#000000" stroke-width="5" stroke-linecap="round" />
    </g>
    <g id="Group-7" transform="translate(498 120)">
      <path d="M0 1.1499L65.73 0" id="Line" fill="none" fill-rule="evenodd" stroke="#000000" stroke-width="5" stroke-linecap="round" />
    </g>
    <path d="M405.058 92.4043L405.001 89.9053C404.985 89.2148 405.215 88.6206 405.692 88.1211C406.169 87.6221 406.753 87.3643 407.443 87.3486L466.353 86.001C467.043 85.9849 467.638 86.2158 468.137 86.6924C468.636 87.1694 468.894 87.7529 468.91 88.4434L470.666 165C470.682 165.69 470.451 166.285 469.974 166.784C469.498 167.284 468.914 167.541 468.224 167.557L409.313 168.904C408.623 168.92 408.029 168.69 407.529 168.213C407.03 167.736 406.773 167.152 406.757 166.462L405.058 92.4043Z" id="Rectangle-2" fill="none" fill-rule="evenodd" stroke="#000000" stroke-width="5" />
    <path d="M752.247 35.8799L752.247 10C752.247 4.47998 747.767 0 742.247 0L380 0C374.478 0 370 4.47998 370 10L370 281.82C370 287.34 374.478 291.82 380 291.82L742.247 291.82C747.767 291.82 752.247 287.34 752.247 281.82L752.247 276.99" id="Shape-7" fill="none" stroke="#000000" stroke-width="5" stroke-linecap="round" />
    <path d="M390 30.3732C390 27.2326 391.11 24.5519 393.331 22.3311C395.552 20.1104 398.233 19 401.373 19L721.387 19C724.527 19 727.208 20.1104 729.429 22.3311C731.65 24.5519 732.76 27.2326 732.76 30.3732C732.76 33.5138 731.65 36.1945 729.429 38.4153C727.208 40.636 724.527 41.7464 721.387 41.7464L401.373 41.7464C398.233 41.7464 395.552 40.636 393.331 38.4153C391.11 36.1945 390 33.5138 390 30.3732L390 30.3732Z" id="Rectangle-3" fill="none" fill-rule="evenodd" stroke="#000000" stroke-width="5" />
    <path d="M412.496 30.2402C412.496 32.5801 410.596 34.48 408.248 34.48C405.9 34.48 404 32.5801 404 30.2402C404 27.8999 405.9 26 408.248 26C410.596 26 412.496 27.8999 412.496 30.2402L412.496 30.2402Z" id="Shape-8" fill="none" stroke="#000000" stroke-width="3" />
    <path d="M429.497 30.2402C429.497 32.5801 427.596 34.48 425.248 34.48C422.9 34.48 421 32.5801 421 30.2402C421 27.8999 422.9 26 425.248 26C427.596 26 429.497 27.8999 429.497 30.2402L429.497 30.2402Z" id="Shape-9" fill="none" stroke="#000000" stroke-width="3" />
    <path d="M445.493 30.2402C445.493 32.5801 443.593 34.48 441.243 34.48C438.9 34.48 437 32.5801 437 30.2402C437 27.8999 438.9 26 441.243 26C443.593 26 445.493 27.8999 445.493 30.2402L445.493 30.2402Z" id="Shape-10" fill="none" stroke="#000000" stroke-width="3" />
    <path d="M274.69 387.1C277.363 379.27 274.93 374 272.544 373C258.27 386.25 236.61 381.33 228.577 373.3C225.721 375.95 227.387 383.79 228.577 386.2C244.047 403.55 266.058 393.83 274.69 387.1L274.69 387.1Z" id="Shape-11" fill="#000000" stroke="none" />
    <path d="M315.546 265.961C309.002 289.581 305.735 291.671 296.213 302.131C296.213 291.791 294.45 274.441 294.45 267.211C263.295 267.211 236.996 254.421 227.743 248.031C228.075 269.711 207.856 283.891 207.856 283.891C207.856 283.891 210.756 292.641 212.413 312.241C213.739 327.921 209.928 324.891 207.856 321.411C201.889 302.071 192.112 307.241 187.969 312.241C137.127 229.191 215.313 213.151 230.229 214.681C241.499 205.001 257.212 197.421 268.268 196.311C308.111 192.301 326.151 227.671 315.546 265.961L315.546 265.961Z" id="Shape-12" fill="#000000" stroke="none" />
    <path d="M209 334.89C214.389 367.6 250.56 391.12 276.665 364.62C302.761 338.13 297.54 289.63 294.752 267" id="Shape-13" fill="none" stroke="#000000" stroke-width="5" stroke-linecap="round" />
    <path d="M187.029 309C183.795 317.03 187.449 335.31 208.584 335.31" id="Shape-14" fill="none" stroke="#000000" stroke-width="5" stroke-linecap="round" />
    <path d="M197.134 315C196.711 316.58 197.049 320.33 201.79 322.66" id="Shape-15" fill="none" stroke="#000000" stroke-width="5" stroke-linecap="round" />
    <path d="M295 331.09C302.061 328.12 305.606 317.6 303.689 300" id="Shape-16" fill="none" stroke="#000000" stroke-width="5" stroke-linecap="round" />
    <path d="M258 350.2C264.782 352.17 264.351 346.75 269.496 342" id="Shape-17" fill="none" stroke="#000000" stroke-width="5" stroke-linecap="round" />
    <path d="M277.411 319.072C279.625 319.282 281.694 316.532 282.039 312.922C282.384 309.312 280.879 306.222 278.676 306.012C276.463 305.792 274.394 308.552 274.049 312.152C273.704 315.762 275.208 318.862 277.411 319.072L277.411 319.072Z" id="Shape-18" fill="#000000" stroke="none" />
    <path d="M236.316 318.859C238.536 319.129 240.686 316.479 241.118 312.929C241.55 309.379 240.1 306.279 237.879 306.019C235.659 305.749 233.508 308.399 233.076 311.949C232.644 315.499 234.095 318.589 236.316 318.859L236.316 318.859Z" id="Shape-19" fill="#000000" stroke="none" />
    <path d="M226 299.702C226.921 296.872 230.892 291.632 239.412 293.332" id="Shape-20" fill="none" stroke="#000000" stroke-width="5" stroke-linecap="round" />
    <path d="M267 293.917C269.031 292.467 274.559 290.447 280.412 293.917" id="Shape-21" fill="none" stroke="#000000" stroke-width="5" stroke-linecap="round" />
    <path d="M260.414 306C261.075 311.79 261.535 323.53 258 324.18" id="Shape-22" fill="none" stroke="#000000" stroke-width="5" stroke-linecap="round" />
    <path d="M418.769 470.33C398.172 447.84 343.182 395.7 288 367" id="Shape-23" fill="none" stroke="#000000" stroke-width="5" stroke-linecap="round" />
    <path d="M500.742 652.274C377.347 837.504 161.601 763.734 84.0013 689.584C34.1853 638.074 -32.8767 524.064 18.3773 412.124C55.3683 331.334 127.085 321.414 181.816 331.004" id="Shape-24" fill="none" stroke="#000000" stroke-width="5" stroke-linecap="round" />
    <path d="M439.24 532.862C373.329 519.472 308.95 556.302 285 576.392C332.9 587.872 370.426 611.162 383.196 621.362C390.094 617.152 405.393 613.872 412.186 612.752C452.616 633.462 537.386 670.462 580.546 688.812C595.016 693.032 616.086 650.462 604.496 637.632L439.24 532.862L439.24 532.862Z" id="Shape-25" fill="#000000" stroke="none" />
    <path d="M112.792 406C110.716 424.65 111.45 472.78 130.994 516.03" id="Shape-26" fill="none" stroke="#000000" stroke-width="5" stroke-linecap="round" />
    <path d="M98 529C106.942 543.03 139.482 577.13 198.112 601.24" id="Shape-27" fill="none" stroke="#000000" stroke-width="5" stroke-linecap="round" />
    <path d="M253 621C264.66 624.19 293.621 628.65 316.23 621" id="Shape-28" fill="none" stroke="#000000" stroke-width="5" stroke-linecap="round" />
    <path d="M198 566.468C232.17 563.758 318.232 571.538 389.126 624.357" id="Shape-29" fill="none" stroke="#000000" stroke-width="5" stroke-linecap="round" />
    <path d="M218 432C220.076 439.02 219.063 459.17 222.79 470.75C227.101 484.14 248.816 489.72 260.153 491.8C279.793 495.39 301.444 494.19 322.903 501.84" id="Shape-30" fill="none" stroke="#000000" stroke-width="5" stroke-linecap="round" />
    <path d="M222.532 384.402C200.116 382.012 169.117 389.662 162.656 423.722C155.759 460.082 172.077 503.772 180.859 524.182C187.857 540.442 233.55 554.032 310.192 535.662" id="Shape-31" fill="none" stroke="#000000" stroke-width="5" stroke-linecap="round" />
    <path d="M310 535.49C313.995 529.11 322.454 513.48 322.454 502" id="Shape-32" fill="none" stroke="#000000" stroke-width="5" stroke-linecap="round" />
    <path d="M279 386C310.614 386 335.331 399.38 354.108 429.62C372.886 459.85 397.698 483.67 407.757 491.81" id="Shape-33" fill="none" stroke="#000000" stroke-width="5" stroke-linecap="round" />
    <path d="M345 443C348.19 449.7 351.945 459.44 354.101 470.75C356.017 480.79 361.286 493.71 363.202 497.54" id="Shape-34" fill="none" stroke="#000000" stroke-width="5" stroke-linecap="round" />
    <path d="M202 543C203.437 547.94 207.27 558.3 213.018 565.96" id="Shape-35" fill="none" stroke="#000000" stroke-width="5" stroke-linecap="round" />
    <path d="M489.834 529L429 530.92L439.538 532.83L535.344 593.58C528.054 553.4 501.974 533.63 489.834 529L489.834 529Z" id="Shape-36" fill="#000000" stroke="none" />
    <path d="M540.71 726.72L500 655.92L501.44 654L580.47 688.45L580.47 696.58C577.21 716.1 550.87 737.63 540.71 726.72L540.71 726.72Z" id="Shape-37" fill="#000000" stroke="none" />
    <path d="M323 502.386C327.628 504.306 339.095 506.896 347.909 503.446C356.723 500.005 369.78 499.786 375.212 500.105C379.686 501.056 388.816 505.646 389.582 516.366C390.061 520.676 383.001 521.625 381.449 517.326" id="Shape-38" fill="none" stroke="#000000" stroke-width="5" stroke-linecap="round" />
    <path d="M364.353 509C369.651 509 379.308 510.74 381.607 517.14C382.009 518.26 382.191 519.53 382.076 520.96C380.639 525.64 372.659 522.41 369.622 519.9C368.147 517.83 363.433 515.65 361 515.12" id="Shape-39" fill="none" stroke="#000000" stroke-width="5" stroke-linecap="round" />
    <path d="M360.682 515C363.115 515.53 367.829 517.71 369.304 519.78C370.051 520.83 369.246 522.19 368.346 523.61C365.472 526.96 360.691 524.77 353.976 522.65C348.228 520.84 342.796 526.32 342 529.35" id="Shape-40" fill="none" stroke="#000000" stroke-width="5" stroke-linecap="round" />
    <path d="M312 532C312.795 532.16 315.545 532.67 320.143 533.44" id="Shape-41" fill="none" stroke="#000000" stroke-width="5" stroke-linecap="round" />
    <path d="M319 533.44C321.3 533.44 376.165 524.35 403.306 519.57L506.768 519.57C512.358 519.88 525.448 518.42 533.118 510" id="Shape-42" fill="none" stroke="#000000" stroke-width="5" stroke-linecap="round" />
    <path d="M533.404 510.371C542.503 487.081 563.103 434.691 570.763 413.251C578.434 391.821 565.974 387.101 558.794 387.421C542.983 387.101 504.853 386.661 478.794 387.421C452.734 388.191 445.263 400.821 441.914 408.471L405.507 509.891C404.711 512.441 404.262 517.541 408.859 519.461" id="Shape-43" fill="none" stroke="#000000" stroke-width="5" stroke-linecap="round" />
    <path d="M533.59 510C529.92 519.09 518.26 532.96 490 531.52" id="Shape-44" fill="none" stroke="#000000" stroke-width="5" stroke-linecap="round" />
    <path d="M319.014 533C318.697 537.94 323.804 545.91 348.233 543.04" id="Shape-45" fill="none" stroke="#000000" stroke-width="5" stroke-linecap="round" />
    <path d="M364 643.61C380.449 643.61 418.032 639.69 436.809 624" id="Shape-46" fill="none" stroke="#000000" stroke-width="5" stroke-linecap="round" />
    <path d="M600 683.201C607.27 690.531 624.65 704.311 646.16 688.971C689.75 657.881 667.72 644.961 642.81 660.751C637.54 664.091 629.97 669.551 622.69 666.491" id="Shape-47" fill="none" stroke="#000000" stroke-width="5" stroke-linecap="round" />
    <path d="M563 729.41C568.68 742.67 579.8 760.63 598 755.55C633.42 745.68 649.23 710.14 617.16 724.63C607.95 728.79 601.8 732.76 589.83 721" id="Shape-48" fill="none" stroke="#000000" stroke-width="5" stroke-linecap="round" />
    <path d="M694 68L694 60.5C694 58.4289 694.732 56.6612 696.197 55.1967C697.661 53.7322 699.429 53 701.5 53L872.145 53C874.216 53 875.984 53.7322 877.448 55.1967C878.913 56.6612 879.645 58.4289 879.645 60.5L879.645 265.341C879.645 267.412 878.913 269.18 877.448 270.644C875.984 272.109 874.216 272.841 872.145 272.841L701.5 272.841C699.429 272.841 697.661 272.109 696.197 270.644C694.732 269.18 694 267.412 694 265.341L694 68Z" id="Rectangle-4" fill="none" fill-rule="evenodd" stroke="#000000" stroke-width="5" />
    <g id="Group-8" transform="translate(714 222)">
      <path d="M0 1L148.97 1" id="Line" fill="none" fill-rule="evenodd" stroke="#000000" stroke-width="5" stroke-linecap="round" />
    </g>
    <path d="M757 247.654C757 245.541 757.747 243.736 759.242 242.242C760.736 240.747 762.541 240 764.654 240L811.617 240C813.73 240 815.535 240.747 817.029 242.242C818.524 243.736 819.271 245.541 819.271 247.654C819.271 249.768 818.524 251.572 817.029 253.066C815.535 254.561 813.73 255.308 811.617 255.308L764.654 255.308C762.541 255.308 760.736 254.561 759.242 253.066C757.747 251.572 757 249.768 757 247.654L757 247.654Z" id="Rectangle-5" fill="#000000" fill-rule="evenodd" stroke="none" />
  </g>
</svg>